<?xml version="1.0" standalone="no"?>
<!DOCTYPE svg PUBLIC "-//W3C//DTD SVG 1.1//EN" "http://www.w3.org/Graphics/SVG/1.1/DTD/svg11.dtd" >
<svg xmlns="http://www.w3.org/2000/svg">
<metadata>Generated by IcoMoon</metadata>
<defs>
<font id="tower-pattern" horiz-adv-x="1024">
<font-face units-per-em="1024" ascent="960" descent="-64" />
<missing-glyph horiz-adv-x="1024" />
<glyph unicode="&#x20;" horiz-adv-x="512" d="" />
<glyph unicode="&#x21;" glyph-name="paperplane" d="M1009.376 954.88c-5.312 3.424-11.36 5.12-17.376 5.12-6.176 0-12.384-1.76-17.76-5.376l-960-640c-9.888-6.56-15.328-18.112-14.048-29.952 1.216-11.808 8.896-22.016 19.936-26.368l250.368-100.192 117.728-206.016c5.632-9.888 16.096-16 27.424-16.128 0.128 0 0.224 0 0.352 0 11.232 0 21.664 5.952 27.424 15.552l66.464 110.816 310.24-124.064c3.808-1.536 7.808-2.272 11.872-2.272 5.44 0 10.816 1.376 15.68 4.128 8.448 4.736 14.24 13.056 15.872 22.624l160 960c2.080 12.576-3.488 25.184-14.176 32.128zM100.352 295.136l741.6 494.432-539.2-577.184c-2.848 1.696-5.376 3.936-8.512 5.184l-193.888 77.568zM326.048 189.888c-0.064 0.128-0.16 0.192-0.224 0.32l606.176 648.8-516.768-805.184-89.184 156.064zM806.944 12.512l-273.312 109.312c-6.496 2.56-13.248 3.424-19.936 3.808l420.864 652.416-127.616-765.536z" />
<glyph unicode="&#x22;" glyph-name="send" d="M85.76 64l895.573 384-895.573 384-0.427-298.667 640-85.333-640-85.333z" />
<glyph unicode="&#x23;" glyph-name="ruler" d="M729.549 937.574l-707.123-707.226c-29.901-29.901-29.901-78.746 0.102-108.749l163.072-163.174c29.901-29.901 78.899-30.003 108.749-0.102l707.226 707.226c29.901 29.952 29.901 78.899 0 108.8l-163.123 163.226c-30.054 30.003-78.95 29.85-108.902 0zM201.165 176.026l-38.861-38.861-97.075 97.126 38.861 38.861 97.075-97.126zM356.608 176.026l-38.861-38.861-174.848 174.848 38.861 38.912 174.848-174.899zM356.608 331.469l-38.861-38.861-97.178 97.075 38.912 38.912 97.126-97.126zM434.33 409.19l-38.861-38.861-97.075 97.075 38.861 38.912 97.075-97.126zM589.722 409.19l-38.861-38.861-174.797 174.797 38.861 38.861 174.797-174.797zM589.722 564.582l-38.861-38.861-97.075 97.075 38.861 38.861 97.075-97.075zM667.443 642.253l-38.861-38.861-97.126 97.126 38.861 38.861 97.126-97.126zM822.886 642.253l-38.912-38.861-174.797 174.848 38.861 38.912 174.848-174.899zM822.835 797.645l-38.861-38.861-97.075 97.178 38.861 38.81 97.075-97.126z" />
<glyph unicode="&#x24;" glyph-name="enter" d="M384 448h-320v128h320v128l192-192-192-192zM1024 960v-832l-384-192v192h-384v256h64v-192h320v576l256 128h-576v-256h-64v320z" />
<glyph unicode="&#x25;" glyph-name="exit" d="M768 320v128h-320v128h320v128l192-192zM704 384v-256h-320v-192l-384 192v832h704v-320h-64v256h-512l256-128v-576h256v192z" />
<glyph unicode="&#x26;" glyph-name="pencil" d="M864 960c88.364 0 160-71.634 160-160 0-36.020-11.91-69.258-32-96l-64-64-224 224 64 64c26.742 20.090 59.978 32 96 32zM64 224l-64-288 288 64 592 592-224 224-592-592zM715.578 596.422l-448-448-55.156 55.156 448 448 55.156-55.156z" />
<glyph unicode="&#x27;" glyph-name="image" d="M0 832v-832h1024v832h-1024zM960 64h-896v704h896v-704zM704 608c0 53.019 42.981 96 96 96s96-42.981 96-96c0-53.019-42.981-96-96-96s-96 42.981-96 96zM896 128h-768l192 512 256-320 128 96z" />
<glyph unicode="&#x28;" glyph-name="images" d="M128 704v-640h896v640h-896zM960 170.666l-128 213.334-145.066-120.888-110.934 184.888-384-320v512h768v-469.334zM256 480c0 53.019 42.981 96 96 96s96-42.981 96-96c0-53.019-42.981-96-96-96s-96 42.981-96 96zM896 832h-896v-640h64v576h832z" />
<glyph unicode="&#x29;" glyph-name="book" d="M896 832v-832h-672c-53.022 0-96 42.98-96 96 0 53.018 42.978 96 96 96h608v768h-640c-70.398 0-128-57.6-128-128v-768c0-70.4 57.602-128 128-128h768v896h-64zM256 128h576v-64h-576z" />
<glyph unicode="&#x2a;" glyph-name="books" d="M576.234 670.73l242.712 81.432 203.584-606.784-242.712-81.432zM0 64h256v704h-256v-704zM64 640h128v-64h-128v64zM320 64h256v704h-256v-704zM384 640h128v-64h-128v64z" />
<glyph unicode="&#x2b;" glyph-name="file" d="M864 960h-768c-52.8 0-96-43.2-96-96v-832c0-52.8 43.2-96 96-96h768c52.8 0 96 43.2 96 96v832c0 52.8-43.2 96-96 96zM832 64h-704v768h704v-768zM256 512h448v-64h-448zM256 384h448v-64h-448zM256 256h448v-64h-448zM256 640h448v-64h-448z" />
<glyph unicode="&#x2c;" glyph-name="copy" d="M832 704h-192v64l-192 192h-448v-768h384v-256h640v576l-192 192zM832 613.49l101.49-101.49h-101.49v101.49zM448 869.49l101.49-101.49h-101.49v101.49zM64 896h320v-192h192v-448h-512v640zM960 0h-512v192h192v448h128v-192h192v-448z" />
<glyph unicode="&#x2d;" glyph-name="stack" d="M1024 640l-512 256-512-256 512-256 512 256zM512 811.030l342.058-171.030-342.058-171.030-342.058 171.030 342.058 171.030zM921.444 499.278l102.556-51.278-512-256-512 256 102.556 51.278 409.444-204.722zM921.444 307.278l102.556-51.278-512-256-512 256 102.556 51.278 409.444-204.722z" />
<glyph unicode="&#x2e;" glyph-name="folder" d="M0 640h1024l-64-640h-896l-64 640zM928 768l32-64h-896l64 128h352l32-64h416z" />
<glyph unicode="&#x2f;" glyph-name="folder-open" d="M832 0l192 512h-832l-192-512zM128 576l-128-576v832h288l128-128h416v-128z" />
<glyph unicode="&#x30;" glyph-name="notebook" d="M898.36 896h-770.36v-128h-93.64c-17.6 0-34.36-12.528-34.36-30.128v-64c0-17.6 16.76-33.872 34.36-33.872h93.64v-64h-93.64c-17.6 0-34.36-12.528-34.36-30.128v-64c0-17.6 16.76-33.872 34.36-33.872h93.64v-64h-93.64c-17.6 0-34.36-12.528-34.36-30.128v-64c0-17.598 16.76-33.872 34.36-33.872h93.64v-64h-93.64c-17.6 0-34.36-12.528-34.36-30.128v-64c0-17.6 16.76-33.872 34.36-33.872h93.64v-128h770.36c35.348 0 61.64 30.526 61.64 65.872v832c0 35.346-26.292 62.128-61.64 62.128zM320 0h-128v64h34.36c17.6 0 29.64 16.272 29.64 33.872v64c0 17.602-12.042 30.128-29.64 30.128h-34.36v64h34.36c17.6 0 29.64 16.272 29.64 33.872v64c0 17.602-12.042 30.128-29.64 30.128h-34.36v64h34.36c17.6 0 29.64 16.272 29.64 33.872v64c0 17.602-12.042 30.128-29.64 30.128h-34.36v64h34.36c17.6 0 29.64 16.272 29.64 33.872v64c0 17.602-12.040 30.128-29.64 30.128h-34.36v64h128v-832z" />
<glyph unicode="&#x31;" glyph-name="disk" d="M896 960h-896v-1024h1024v896l-128 128zM512 832h128v-256h-128v256zM896 64h-768v768h64v-320h576v320h74.978l53.022-53.018v-714.982z" />
<glyph unicode="&#x32;" glyph-name="user" d="M256 640c0 141.385 114.615 256 256 256s256-114.615 256-256c0-141.385-114.615-256-256-256s-256 114.615-256 256zM768 320h-512c-141.384 0-256-114.618-256-256v-64h1024v64c0 141.382-114.616 256-256 256z" />
<glyph unicode="&#x33;" glyph-name="search" d="M992.262 88.604l-242.552 206.294c-25.074 22.566-51.89 32.926-73.552 31.926 57.256 67.068 91.842 154.078 91.842 249.176 0 212.078-171.922 384-384 384-212.076 0-384-171.922-384-384s171.922-384 384-384c95.098 0 182.108 34.586 249.176 91.844-1-21.662 9.36-48.478 31.926-73.552l206.294-242.552c35.322-39.246 93.022-42.554 128.22-7.356s31.892 92.898-7.354 128.22zM384 320c-141.384 0-256 114.616-256 256s114.616 256 256 256 256-114.616 256-256-114.614-256-256-256z" />
<glyph unicode="&#x34;" glyph-name="key" d="M704 960c-176.73 0-320-143.268-320-320 0-20.026 1.858-39.616 5.376-58.624l-389.376-389.376v-192c0-35.346 28.654-64 64-64h64v64h128v128h128v128h128l83.042 83.042c34.010-12.316 70.696-19.042 108.958-19.042 176.73 0 320 143.268 320 320s-143.27 320-320 320zM799.874 639.874c-53.020 0-96 42.98-96 96s42.98 96 96 96 96-42.98 96-96-42.98-96-96-96z" />
<glyph unicode="&#x35;" glyph-name="minus" d="M0 544v-192c0-17.672 14.328-32 32-32h960c17.672 0 32 14.328 32 32v192c0 17.672-14.328 32-32 32h-960c-17.672 0-32-14.328-32-32z" />
<glyph unicode="&#x36;" glyph-name="plus" d="M992 576h-352v352c0 17.672-14.328 32-32 32h-192c-17.672 0-32-14.328-32-32v-352h-352c-17.672 0-32-14.328-32-32v-192c0-17.672 14.328-32 32-32h352v-352c0-17.672 14.328-32 32-32h192c17.672 0 32 14.328 32 32v352h352c17.672 0 32 14.328 32 32v192c0 17.672-14.328 32-32 32z" />
<glyph unicode="&#x37;" glyph-name="arrow-up" d="M512.002 960l-512.002-512h320v-511.998l384-0.002v512h320z" />
<glyph unicode="&#x38;" glyph-name="arrow-right" d="M1024 448l-512 512v-320h-511.998l-0.002-384h512v-320z" />
<glyph unicode="&#x39;" glyph-name="arrow-down" d="M512-64l512 512h-320v511.998l-384 0.002v-512h-320z" />
<glyph unicode="&#x3a;" glyph-name="arrow-left" d="M0 448l512-512v320h511.998l0.002 384h-512v320z" />
<glyph unicode="&#x3b;" glyph-name="bold" d="M707.88 475.348c37.498 44.542 60.12 102.008 60.12 164.652 0 141.16-114.842 256-256 256h-320v-896h384c141.158 0 256 114.842 256 256 0 92.956-49.798 174.496-124.12 219.348zM384 768h101.5c55.968 0 101.5-57.42 101.5-128s-45.532-128-101.5-128h-101.5v256zM543 128h-159v256h159c58.45 0 106-57.42 106-128s-47.55-128-106-128z" />
<glyph unicode="&#x3c;" glyph-name="underline" d="M704 896h128v-416c0-159.058-143.268-288-320-288-176.73 0-320 128.942-320 288v416h128v-416c0-40.166 18.238-78.704 51.354-108.506 36.896-33.204 86.846-51.494 140.646-51.494s103.75 18.29 140.646 51.494c33.116 29.802 51.354 68.34 51.354 108.506v416zM192 128h640v-128h-640z" />
<glyph unicode="&#x3d;" glyph-name="italic" d="M896 896v-64h-128l-320-768h128v-64h-448v64h128l320 768h-128v64z" />
<glyph unicode="&#x3e;" glyph-name="paragraph-left" d="M0 896h1024v-128h-1024zM0 704h640v-128h-640zM0 320h640v-128h-640zM0 512h1024v-128h-1024zM0 128h1024v-128h-1024z" />
<glyph unicode="&#x3f;" glyph-name="paragraph-center" d="M0 896h1024v-128h-1024zM192 704h640v-128h-640zM192 320h640v-128h-640zM0 512h1024v-128h-1024zM0 128h1024v-128h-1024z" />
<glyph unicode="&#x40;" glyph-name="paragraph-right" d="M0 896h1024v-128h-1024zM384 704h640v-128h-640zM384 320h640v-128h-640zM0 512h1024v-128h-1024zM0 128h1024v-128h-1024z" />
<glyph unicode="&#x41;" glyph-name="list" d="M384 896h640v-128h-640v128zM384 512h640v-128h-640v128zM384 128h640v-128h-640v128zM0 832c0 70.692 57.308 128 128 128s128-57.308 128-128c0-70.692-57.308-128-128-128s-128 57.308-128 128zM0 448c0 70.692 57.308 128 128 128s128-57.308 128-128c0-70.692-57.308-128-128-128s-128 57.308-128 128zM0 64c0 70.692 57.308 128 128 128s128-57.308 128-128c0-70.692-57.308-128-128-128s-128 57.308-128 128z" />
<glyph unicode="&#x42;" glyph-name="numbered-list" d="M384 128h640v-128h-640zM384 512h640v-128h-640zM384 896h640v-128h-640zM192 960v-256h-64v192h-64v64zM128 434v-50h128v-64h-192v146l128 60v50h-128v64h192v-146zM256 256v-320h-192v64h128v64h-128v64h128v64h-128v64z" />
<glyph unicode="&#x43;" glyph-name="menu" d="M0 576h704v-128h-704v128zM0 768h704v-128h-704v128zM0 384h704v-128h-704v128zM0 192h704v-128h-704v128zM768 384l128-192 128 192h-256zM1024 448l-128 192-128-192h256z" />
<glyph unicode="&#x44;" glyph-name="menu2" d="M64 768h896v-192h-896zM64 512h896v-192h-896zM64 256h896v-192h-896z" />
<glyph unicode="&#x45;" glyph-name="print" d="M256 896h512v-128h-512zM960 704h-896c-35.2 0-64-28.8-64-64v-320c0-35.2 28.796-64 64-64h192v-256h512v256h192c35.2 0 64 28.8 64 64v320c0 35.2-28.8 64-64 64zM704 64h-384v320h384v-320zM974.4 608c0-25.626-20.774-46.4-46.398-46.4-25.626 0-46.402 20.774-46.402 46.4s20.776 46.4 46.402 46.4c25.626 0 46.398-20.774 46.398-46.4z" />
<glyph unicode="&#x46;" glyph-name="remove" d="M800 832h-576c-53.020 0-96-42.98-96-96v-32h768v32c0 53.020-42.98 96-96 96zM632.32 896l14.116-101h-268.872l14.114 101h240.642M640 960h-256c-26.4 0-50.99-21.392-54.642-47.538l-18.714-133.924c-3.654-26.146 14.956-47.538 41.356-47.538h320c26.4 0 45.010 21.392 41.358 47.538l-18.714 133.924c-3.654 26.146-28.244 47.538-54.644 47.538v0zM816 640h-608c-35.2 0-61.392-28.682-58.206-63.738l52.412-576.526c3.186-35.054 34.594-63.736 69.794-63.736h480c35.2 0 66.608 28.682 69.794 63.736l52.41 576.526c3.188 35.056-23.004 63.738-58.204 63.738zM384 64h-96l-32 448h128v-448zM576 64h-128v448h128v-448zM736 64h-96v448h128l-32-448z" />
<glyph unicode="&#x47;" glyph-name="link" d="M953.396 885.358l-4.028 4.042c-94.148 94.134-248.194 94.134-342.326 0l-218.106-218.136c-94.134-94.132-94.134-248.176 0-342.31l4.026-4.026c7.832-7.848 16.146-14.924 24.736-21.458l79.848 79.85c-9.302 5.494-18.126 12.072-26.116 20.060l-4.042 4.042c-51.114 51.098-51.114 134.272 0 185.39l218.128 218.112c51.116 51.118 134.274 51.118 185.386 0l4.042-4.024c51.1-51.116 51.1-134.292 0-185.39l-98.686-98.686c17.132-42.308 25.248-87.4 24.538-132.386l152.604 152.604c94.134 94.136 94.134 248.178-0.004 342.316zM631.042 571.066c-7.832 7.832-16.146 14.922-24.736 21.44l-79.848-79.832c9.304-5.496 18.126-12.074 26.116-20.062l4.042-4.040c51.116-51.116 51.116-134.272 0-185.388l-218.13-218.134c-51.118-51.102-134.276-51.102-185.388 0l-4.042 4.042c-51.098 51.12-51.098 134.276 0 185.388l98.688 98.686c-17.134 42.306-25.246 87.402-24.538 132.386l-152.602-152.598c-94.136-94.132-94.136-248.178 0-342.324l4.026-4.032c94.152-94.128 248.192-94.128 342.328 0l218.11 218.118c94.134 94.132 94.134 248.194 0 342.326l-4.026 4.024z" />
<glyph unicode="&#x48;" glyph-name="scissors" d="M890.774 250.846c-45.654 45.556-103.728 69.072-157.946 69.072h-29.112l-63.904 64.008 255.62 256.038c63.904 64.010 63.904 192.028 0 256.038l-383.43-384.056-383.432 384.054c-63.904-64.008-63.904-192.028 0-256.038l255.622-256.034-63.906-64.008h-29.114c-54.22 0-112.292-23.518-157.948-69.076-81.622-81.442-92.65-202.484-24.63-270.35 29.97-29.902 70.288-44.494 112.996-44.494 54.216 0 112.29 23.514 157.946 69.072 53.584 53.464 76.742 124 67.084 185.348l65.384 65.488 65.376-65.488c-9.656-61.348 13.506-131.882 67.084-185.348 45.662-45.558 103.732-69.072 157.948-69.072 42.708 0 83.024 14.592 112.994 44.496 68.020 67.866 56.988 188.908-24.632 270.35zM353.024 114.462c-7.698-17.882-19.010-34.346-33.626-48.926-14.636-14.604-31.172-25.918-49.148-33.624-16.132-6.916-32.96-10.568-48.662-10.568-15.146 0-36.612 3.402-52.862 19.612-16.136 16.104-19.52 37.318-19.52 52.288 0 15.542 3.642 32.21 10.526 48.212 7.7 17.884 19.014 34.346 33.626 48.926 14.634 14.606 31.172 25.914 49.15 33.624 16.134 6.914 32.96 10.568 48.664 10.568 15.146 0 36.612-3.4 52.858-19.614 16.134-16.098 19.522-37.316 19.522-52.284 0.002-15.542-3.638-32.216-10.528-48.214zM512.004 293.404c-49.914 0-90.376 40.532-90.376 90.526 0 49.992 40.462 90.52 90.376 90.52s90.372-40.528 90.372-90.52c0-49.998-40.46-90.526-90.372-90.526zM855.272 40.958c-16.248-16.208-37.712-19.612-52.86-19.612-15.704 0-32.53 3.652-48.666 10.568-17.972 7.706-34.508 19.020-49.142 33.624-14.614 14.58-25.926 31.042-33.626 48.926-6.886 15.998-10.526 32.672-10.526 48.212 0 14.966 3.384 36.188 19.52 52.286 16.246 16.208 37.712 19.614 52.86 19.614 15.7 0 32.53-3.654 48.66-10.568 17.978-7.708 34.516-19.018 49.15-33.624 14.61-14.58 25.924-31.042 33.626-48.926 6.884-15.998 10.526-32.67 10.526-48.212-0.002-14.97-3.39-36.186-19.522-52.288z" />
<glyph unicode="&#x49;" glyph-name="close" d="M1014.662 137.34c-0.004 0.004-0.008 0.008-0.012 0.010l-310.644 310.65 310.644 310.65c0.004 0.004 0.008 0.006 0.012 0.010 3.344 3.346 5.762 7.254 7.312 11.416 4.246 11.376 1.824 24.682-7.324 33.83l-146.746 146.746c-9.148 9.146-22.45 11.566-33.828 7.32-4.16-1.55-8.070-3.968-11.418-7.31 0-0.004-0.004-0.006-0.008-0.010l-310.648-310.652-310.648 310.65c-0.004 0.004-0.006 0.006-0.010 0.010-3.346 3.342-7.254 5.76-11.414 7.31-11.38 4.248-24.682 1.826-33.83-7.32l-146.748-146.748c-9.148-9.148-11.568-22.452-7.322-33.828 1.552-4.16 3.97-8.072 7.312-11.416 0.004-0.002 0.006-0.006 0.010-0.010l310.65-310.648-310.65-310.652c-0.002-0.004-0.006-0.006-0.008-0.010-3.342-3.346-5.76-7.254-7.314-11.414-4.248-11.376-1.826-24.682 7.322-33.83l146.748-146.746c9.15-9.148 22.452-11.568 33.83-7.322 4.16 1.552 8.070 3.97 11.416 7.312 0.002 0.004 0.006 0.006 0.010 0.010l310.648 310.65 310.648-310.65c0.004-0.002 0.008-0.006 0.012-0.008 3.348-3.344 7.254-5.762 11.414-7.314 11.378-4.246 24.684-1.826 33.828 7.322l146.746 146.748c9.148 9.148 11.57 22.454 7.324 33.83-1.552 4.16-3.97 8.068-7.314 11.414z" />
<glyph unicode="&#x4a;" glyph-name="pencil2" d="M384 320l128 64 448 448-64 64-448-448-64-128zM289.3 92.902c-31.632 66.728-65.666 100.762-132.396 132.394l99.096 272.792 128 77.912 384 384h-192l-384-384-192-640 640 192 384 384v192l-384-384-77.912-128" />
<glyph unicode="&#x4b;" glyph-name="undo" d="M512 896c-141.384 0-269.376-57.32-362.032-149.978l-149.968 149.978v-384h384l-143.532 143.522c69.496 69.492 165.492 112.478 271.532 112.478 212.068 0 384-171.924 384-384 0-114.696-50.292-217.636-130.018-288l84.666-96c106.302 93.816 173.352 231.076 173.352 384 0 282.77-229.23 512-512 512z" />
<glyph unicode="&#x4c;" glyph-name="redo" d="M0 384c0-152.924 67.048-290.184 173.35-384l84.666 96c-79.726 70.364-130.016 173.304-130.016 288 0 212.076 171.93 384 384 384 106.042 0 202.038-42.986 271.53-112.478l-143.53-143.522h384v384l-149.97-149.978c-92.654 92.658-220.644 149.978-362.030 149.978-282.77 0-512-229.23-512-512z" />
<glyph unicode="&#x4d;" glyph-name="file-xml" d="M448 384l-64 64-192-192 192-192 64 64-128 128zM576 128l64-64 192 192-192 192-64-64 128-128zM903.432 760.57l-142.864 142.862c-31.112 31.112-92.568 56.568-136.568 56.568h-480c-44 0-80-36-80-80v-864c0-44 36-80 80-80h736c44 0 80 36 80 80v608c0 44-25.456 105.458-56.568 136.57zM858.178 715.314c3.13-3.13 6.25-6.974 9.28-11.314h-163.458v163.456c4.34-3.030 8.184-6.15 11.314-9.28l142.864-142.862zM896 16c0-8.672-7.328-16-16-16h-736c-8.672 0-16 7.328-16 16v864c0 8.672 7.328 16 16 16h480c4.832 0 10.254-0.61 16-1.704v-254.296h254.296c1.094-5.746 1.704-11.166 1.704-16v-608z" />
<glyph unicode="&#x4e;" glyph-name="file-css" d="M384 348.554v114.226c0 15.128 6.696 29.436 18.854 40.286 12.16 10.848 28.192 16.826 45.146 16.826v57.11c-70.4 0-128-51.4-128-114.222v-85.666c0-15.772-14.328-28.558-32-28.558h-32v-57.11h32c17.674 0 32-12.79 32-28.558v-85.676c0-62.814 57.6-114.214 128-114.214v57.112c-16.954 0-32.988 5.976-45.146 16.826-12.158 10.852-18.854 25.154-18.854 40.278v114.234c0 15.77-14.328 28.554-32 28.554 17.674-0.002 32 12.788 32 28.552zM640 291.446v-114.234c0-15.124-6.696-29.426-18.854-40.278-12.158-10.85-28.19-16.826-45.146-16.826v-57.112c70.402 0 128 51.4 128 114.214v85.676c0 15.772 14.328 28.558 32 28.558h32v57.11h-32c-17.672 0-32 12.79-32 28.558v85.668c0 62.824-57.598 114.222-128 114.222v-57.11c16.958 0 32.988-5.978 45.146-16.83 12.16-10.848 18.854-25.156 18.854-40.284v-114.228c0-15.766 14.328-28.552 32-28.552-17.672 0.002-32-12.788-32-28.552zM903.432 760.57l-142.864 142.862c-31.112 31.112-92.568 56.568-136.568 56.568h-480c-44 0-80-36-80-80v-864c0-44 36-80 80-80h736c44 0 80 36 80 80v608c0 44-25.456 105.458-56.568 136.57zM858.178 715.314c3.13-3.13 6.25-6.974 9.28-11.314h-163.458v163.456c4.34-3.030 8.184-6.15 11.314-9.28l142.864-142.862zM896 16c0-8.672-7.328-16-16-16h-736c-8.672 0-16 7.328-16 16v864c0 8.672 7.328 16 16 16h480c4.832 0 10.254-0.61 16-1.704v-254.296h254.296c1.094-5.746 1.704-11.166 1.704-16v-608z" />
<glyph unicode="&#x4f;" glyph-name="html5" d="M60.538 960l82.144-921.63 368.756-102.37 369.724 102.524 82.3 921.476h-902.924zM784.63 658.572h-432.54l10.302-115.75h411.968l-31.042-347.010-231.844-64.254-231.572 64.254-15.83 177.512h113.494l8.048-90.232 125.862-33.916 0.278 0.078 125.934 33.992 13.070 146.55h-391.74l-30.494 341.8h566.214l-10.108-113.024z" />
<glyph unicode="&#x50;" glyph-name="css3" d="M152.388 911.478l-34.36-171.926h699.748l-21.884-111.054h-700.188l-33.892-171.898h699.684l-39.018-196.064-282.012-93.422-244.4 93.422 16.728 85.042h-171.898l-40.896-206.352 404.226-154.704 466.006 154.704 153.768 772.252z" />
<glyph unicode="&#x51;" glyph-name="mail" d="M853.31 960h-682.62c-93.88 0-170.69-76.784-170.69-170.658v-682.656c0-93.876 76.81-170.686 170.69-170.686h682.622c93.938 0 170.688 76.81 170.688 170.686v682.656c0 93.874-76.75 170.658-170.69 170.658zM256 704h512c9.138 0 18.004-1.962 26.144-5.662l-282.144-329.168-282.144 329.17c8.14 3.696 17.006 5.66 26.144 5.66zM192 256v384c0 1.34 0.056 2.672 0.14 4l187.664-218.94-185.598-185.6c-1.444 5.338-2.206 10.886-2.206 16.54zM768 192h-512c-5.654 0-11.202 0.762-16.54 2.206l182.118 182.118 90.422-105.496 90.424 105.494 182.116-182.118c-5.34-1.442-10.886-2.204-16.54-2.204zM832 256c0-5.654-0.762-11.2-2.206-16.54l-185.598 185.598 187.664 218.942c0.084-1.328 0.14-2.66 0.14-4v-384z" />
<glyph unicode="&#x52;" glyph-name="indent-increase" d="M0 896h1024v-128h-1024zM384 704h640v-128h-640zM384 512h640v-128h-640zM384 320h640v-128h-640zM0 128h1024v-128h-1024zM0 256v384l256-192z" />
<glyph unicode="&#x53;" glyph-name="indent-decrease" d="M0 896h1024v-128h-1024zM384 704h640v-128h-640zM384 512h640v-128h-640zM384 320h640v-128h-640zM0 128h1024v-128h-1024zM256 640v-384l-256 192z" />
<glyph unicode="&#x54;" glyph-name="table" d="M0 768v-704h1024v704h-1024zM384 320v128h256v-128h-256zM640 256v-128h-256v128h256zM640 640v-128h-256v128h256zM320 640v-128h-256v128h256zM64 448h256v-128h-256v128zM704 448h256v-128h-256v128zM704 512v128h256v-128h-256zM64 256h256v-128h-256v128zM704 128v128h256v-128h-256z" />
<glyph unicode="&#x55;" glyph-name="paste" d="M704 832h-128v64c0 35.2-28.8 64-64 64h-128c-35.204 0-64-28.8-64-64v-64h-128v-128h512v128zM512 832h-128v63.886c0.034 0.038 0.072 0.078 0.114 0.114h127.768c0.042-0.036 0.082-0.076 0.118-0.114v-63.886zM832 640v160c0 17.6-14.4 32-32 32h-64v-64h32v-128h-384v-448h-256v576h32v64h-64c-17.602 0-32-14.4-32-32v-640c0-17.6 14.398-32 32-32h288v-192h448l192 192v512h-192zM832 26.51v101.49h101.49l-101.49-101.49zM960 192h-192v-192h-320v576h512v-384z" />
<glyph unicode="&#x56;" glyph-name="spoon-knife" d="M224 960c-106.040 0-192-100.288-192-224 0-105.924 63.022-194.666 147.706-217.998l-31.788-518.124c-2.154-35.132 24.882-63.878 60.082-63.878h32c35.2 0 62.236 28.746 60.082 63.878l-31.788 518.124c84.684 23.332 147.706 112.074 147.706 217.998 0 123.712-85.96 224-192 224zM869.334 960l-53.334-320h-40l-26.666 320h-26.668l-26.666-320h-40l-53.334 320h-26.666v-416c0-17.672 14.326-32 32-32h83.338l-31.42-512.122c-2.154-35.132 24.882-63.878 60.082-63.878h32c35.2 0 62.236 28.746 60.082 63.878l-31.42 512.122h83.338c17.674 0 32 14.328 32 32v416h-26.666z" />
<glyph unicode="&#x57;" glyph-name="opt" d="M928 128h-256c-12.646 0-24.106 7.448-29.242 19.004l-247.554 556.996h-299.204c-17.672 0-32 14.328-32 32s14.328 32 32 32h320c12.646 0 24.106-7.448 29.242-19.004l247.556-556.996h235.202c17.674 0 32-14.326 32-32s-14.326-32-32-32zM928 704h-320c-17.674 0-32 14.328-32 32s14.326 32 32 32h320c17.674 0 32-14.328 32-32s-14.326-32-32-32z" />
<glyph unicode="&#x58;" glyph-name="users" horiz-adv-x="1152" d="M768 189.388v52.78c70.498 39.728 128 138.772 128 237.832 0 159.058 0 288-192 288s-192-128.942-192-288c0-99.060 57.502-198.104 128-237.832v-52.78c-217.102-17.748-384-124.42-384-253.388h896c0 128.968-166.898 235.64-384 253.388zM327.196 164.672c55.31 36.15 124.080 63.636 199.788 80.414-15.054 17.784-28.708 37.622-40.492 59.020-30.414 55.234-46.492 116.058-46.492 175.894 0 86.042 0 167.31 30.6 233.762 29.706 64.504 83.128 104.496 159.222 119.488-16.914 76.48-61.94 126.75-181.822 126.75-192 0-192-128.942-192-288 0-99.060 57.502-198.104 128-237.832v-52.78c-217.102-17.748-384-124.42-384-253.388h279.006c14.518 12.91 30.596 25.172 48.19 36.672z" />
<glyph unicode="&#x59;" glyph-name="compass" d="M544.010-64.004c-2.296 0-4.622 0.25-6.94 0.764-14.648 3.25-25.070 16.238-25.070 31.24v480h-480c-15.002 0-27.992 10.422-31.24 25.070-3.25 14.646 4.114 29.584 17.708 35.928l960 448c12.196 5.688 26.644 3.144 36.16-6.372 9.516-9.514 12.060-23.966 6.372-36.16l-448-960c-5.342-11.44-16.772-18.47-28.99-18.47zM176.242 512h367.758c17.674 0 32-14.328 32-32v-367.758l349.79 749.546-749.548-349.788z" />
<glyph unicode="&#x5a;" glyph-name="wrench" d="M1002.934 142.124l-460.552 394.76c21.448 40.298 33.618 86.282 33.618 135.116 0 159.058-128.942 288-288 288-29.094 0-57.172-4.332-83.646-12.354l166.39-166.39c24.89-24.89 24.89-65.62 0-90.51l-101.49-101.49c-24.89-24.89-65.62-24.89-90.51 0l-166.39 166.39c-8.022-26.474-12.354-54.552-12.354-83.646 0-159.058 128.942-288 288-288 48.834 0 94.818 12.17 135.116 33.62l394.76-460.552c22.908-26.724 62.016-28.226 86.904-3.338l101.492 101.492c24.888 24.888 23.386 63.994-3.338 86.902z" />
<glyph unicode="&#x5b;" glyph-name="cogs" d="M363.722 237.948l41.298 57.816-45.254 45.256-57.818-41.296c-10.722 5.994-22.204 10.774-34.266 14.192l-11.682 70.084h-64l-11.68-70.086c-12.062-3.418-23.544-8.198-34.266-14.192l-57.818 41.298-45.256-45.256 41.298-57.816c-5.994-10.72-10.774-22.206-14.192-34.266l-70.086-11.682v-64l70.086-11.682c3.418-12.060 8.198-23.544 14.192-34.266l-41.298-57.816 45.254-45.256 57.818 41.296c10.722-5.994 22.204-10.774 34.266-14.192l11.682-70.084h64l11.68 70.086c12.062 3.418 23.544 8.198 34.266 14.192l57.818-41.296 45.254 45.256-41.298 57.816c5.994 10.72 10.774 22.206 14.192 34.266l70.088 11.68v64l-70.086 11.682c-3.418 12.060-8.198 23.544-14.192 34.266zM224 96c-35.348 0-64 28.654-64 64s28.652 64 64 64 64-28.654 64-64-28.652-64-64-64zM1024 576v64l-67.382 12.25c-1.242 8.046-2.832 15.978-4.724 23.79l57.558 37.1-24.492 59.128-66.944-14.468c-4.214 6.91-8.726 13.62-13.492 20.13l39.006 56.342-45.256 45.254-56.342-39.006c-6.512 4.766-13.22 9.276-20.13 13.494l14.468 66.944-59.128 24.494-37.1-57.558c-7.812 1.892-15.744 3.482-23.79 4.724l-12.252 67.382h-64l-12.252-67.382c-8.046-1.242-15.976-2.832-23.79-4.724l-37.098 57.558-59.128-24.492 14.468-66.944c-6.91-4.216-13.62-8.728-20.13-13.494l-56.342 39.006-45.254-45.254 39.006-56.342c-4.766-6.51-9.278-13.22-13.494-20.13l-66.944 14.468-24.492-59.128 57.558-37.1c-1.892-7.812-3.482-15.742-4.724-23.79l-67.384-12.252v-64l67.382-12.25c1.242-8.046 2.832-15.978 4.724-23.79l-57.558-37.1 24.492-59.128 66.944 14.468c4.216-6.91 8.728-13.618 13.494-20.13l-39.006-56.342 45.254-45.256 56.342 39.006c6.51-4.766 13.22-9.276 20.13-13.492l-14.468-66.944 59.128-24.492 37.102 57.558c7.81-1.892 15.742-3.482 23.788-4.724l12.252-67.384h64l12.252 67.382c8.044 1.242 15.976 2.832 23.79 4.724l37.1-57.558 59.128 24.492-14.468 66.944c6.91 4.216 13.62 8.726 20.13 13.492l56.342-39.006 45.256 45.256-39.006 56.342c4.766 6.512 9.276 13.22 13.492 20.13l66.944-14.468 24.492 59.13-57.558 37.1c1.892 7.812 3.482 15.742 4.724 23.79l67.382 12.25zM672 468.8c-76.878 0-139.2 62.322-139.2 139.2s62.32 139.2 139.2 139.2 139.2-62.322 139.2-139.2c0-76.878-62.32-139.2-139.2-139.2z" />
<glyph unicode="&#x5c;" glyph-name="truck" d="M1024 384l-128 256h-192v128c0 35.2-28.8 64-64 64h-576c-35.2 0-64-28.8-64-64v-512l64-64h81.166c-10.898-18.832-17.166-40.678-17.166-64 0-70.692 57.308-128 128-128s128 57.308 128 128c0 23.322-6.268 45.168-17.166 64h354.334c-10.898-18.832-17.168-40.678-17.168-64 0-70.692 57.308-128 128-128s128 57.308 128 128c0 23.322-6.27 45.168-17.168 64h81.168v192zM704 384v192h132.668l96-192h-228.668z" />
<glyph unicode="&#x5d;" glyph-name="shock" d="M512 960c-282.317 0-512-229.683-512-512s229.683-512 512-512 512 229.683 512 512-229.683 512-512 512zM512 29.091c-230.986 0-418.909 187.923-418.909 418.909s187.923 418.909 418.909 418.909 418.909-187.923 418.909-418.909-187.923-418.909-418.909-418.909zM512 345.789c-46.251 0-83.875-37.624-83.875-83.872 0-46.254 37.624-83.881 83.875-83.881 46.248 0 83.875 37.627 83.875 83.878s-37.627 83.875-83.875 83.875zM313.406 609.358c-16.353 0-32.334-6.64-43.877-18.181-11.543-11.546-18.184-27.558-18.184-43.88s6.64-32.334 18.184-43.877c11.543-11.543 27.555-18.184 43.877-18.184s32.334 6.644 43.877 18.184c11.543 11.543 18.184 27.555 18.184 43.877 0 16.356-6.64 32.334-18.184 43.88-11.543 11.54-27.524 18.181-43.877 18.181zM710.594 609.358c-16.322 0-32.334-6.64-43.88-18.181-11.54-11.546-18.181-27.558-18.181-43.88s6.64-32.334 18.181-43.877c11.546-11.543 27.558-18.184 43.88-18.184s32.334 6.644 43.877 18.184c11.543 11.543 18.184 27.555 18.184 43.877s-6.644 32.334-18.184 43.88c-11.543 11.54-27.555 18.181-43.877 18.181z" />
<glyph unicode="&#x5e;" glyph-name="fire" d="M321.008-64c-68.246 142.008-31.902 223.378 20.55 300.044 57.44 83.956 72.244 167.066 72.244 167.066s45.154-58.7 27.092-150.508c79.772 88.8 94.824 230.28 82.782 284.464 180.314-126.012 257.376-398.856 153.522-601.066 552.372 312.532 137.398 780.172 65.154 832.85 24.082-52.676 28.648-141.85-20-185.126-82.352 312.276-285.972 376.276-285.972 376.276 24.082-161.044-87.296-337.144-194.696-468.73-3.774 64.216-7.782 108.528-41.55 169.98-7.58-116.656-96.732-211.748-120.874-328.628-32.702-158.286 24.496-274.18 241.748-396.622z" />
<glyph unicode="&#x5f;" glyph-name="gas_mask" d="M392 944.8c-152.8-48.8-250.4-170.4-276-346.4l-4.8-30.4h-79.2v-88h80v-49.6c0-153.6 53.6-255.2 159.2-302.4 33.6-15.2 40-22.4 48.8-51.2 9.6-32 39.2-78.4 64-99.2 64.8-55.2 191.2-55.2 256 0 24.8 20.8 54.4 67.2 64 99.2 8.8 28.8 15.2 36 48.8 51.2 105.6 47.2 159.2 148.8 159.2 302.4v49.6h80v88h-79.2l-4.8 30.4c-26.4 178.4-128 303.2-283.2 348.8-59.2 17.6-175.2 16-232.8-2.4zM608.8 859.2c84-26.4 158.4-98.4 192-184.8 24-63.2 32-280 12-347.2-13.6-47.2-46.4-92-82.4-112.8l-23.2-13.6-28 40.8c-40 59.2-95.2 88.8-167.2 88.8s-127.2-29.6-167.2-88.8l-28-40.8-23.2 13.6c-36.8 21.6-68 62.4-81.6 107.2-14.4 48-16.8 227.2-4 294.4 36 190.4 218.4 300 400.8 243.2zM331.2 596.8c-70.4-31.2-91.2-150.4-35.2-206.4 44.8-44 127.2-23.2 160.8 41.6 17.6 32 20 100 5.6 132-18.4 40.8-79.2 55.2-131.2 32.8zM608 597.6c-52.8-26.4-73.6-116-40-172 16.8-27.2 69.6-56.8 102.4-57.6 28 0 61.6 20.8 72.8 45.6 18.4 40 20 100.8 4.8 133.6-24 49.6-92.8 74.4-140 50.4z" />
<glyph unicode="&#x60;" glyph-name="accident-staircase" d="M844.785 390.561l-104.836 19.708-34.658-10.479 126.291-150.963c17.923-21.428 49.799-24.228 71.187-6.334 21.408 17.907 24.244 49.779 6.334 71.187l-64.318 76.882zM299.036 667.415l15.127-26.078 23.166 62.971-20.643-173.218c-1.476-14.029 4.163-27.859 15.026-36.853l132.158-109.496c18.25-15.111 44.818-11.902 59.294 5.585 14.827 17.907 12.34 44.455-5.585 59.296-11.258 9.321-100.822 83.467-112.211 92.897l16.785 159.288c2.277-15.042 18.666-123.35 20.882-137.983l75.642-62.622 101.611 56.957-79.78 137.544 64.89 1.358c10.222 0.212 20.019 4.14 27.559 11.045l145.852 133.554c17.154 15.706 18.326 42.346 2.617 59.5-15.704 17.151-42.344 18.326-59.5 2.617l-134.151-122.84-95.55-2c-16.986 29.279-53.206 37.837-80.818 21.82l-90.953-52.756c-28.17-16.337-37.759-52.418-21.419-80.586zM396.703 872.718c0-48.205-39.078-87.282-87.282-87.282s-87.282 39.078-87.282 87.282c0 48.205 39.078 87.282 87.282 87.282s87.282-39.078 87.282-87.282zM931.343 518.271l-187.102 35.171c-7.891 1.485-16.111 1.080-23.962-1.291l-192.75-58.279 15.834-13.11c23.973-19.847 33.84-50.499 28.409-79.109l165.936 50.175 174.963-32.891c27.487-5.165 53.856 12.955 59.003 40.329 5.153 27.434-12.902 53.848-40.331 59.005zM600.427 154.799h-134.921v134.921c0 24.345-19.804 44.149-44.149 44.149h-134.919v134.921c0 24.345-19.806 44.149-44.151 44.149h-134.921v134.921c0 15.443-12.519 27.959-27.959 27.959s-27.959-12.517-27.959-27.959v-146.691c0-24.345 19.806-44.149 44.151-44.149h134.921v-134.921c0-24.345 19.804-44.149 44.149-44.149h134.919v-134.921c0-24.345 19.806-44.149 44.151-44.149h134.921v-134.921c0-15.443 12.519-27.959 27.959-27.959s27.959 12.517 27.959 27.959v146.691c0 24.345-19.806 44.149-44.151 44.149z" />
<glyph unicode="&#x61;" glyph-name="battle" d="M400.487 658.133v247.596c0 17.010-2.363 35.708-9.315 45.766-168.349 47.116-187.722-116.71-187.722-116.71-5.4-20.588-8.1-58.861-9.45-98.35 8.775 2.093 17.483 3.375 25.853 3.375v0c24.436 0 45.901-9.653 60.481-27.203 18.293-22.073 24.571-53.731 19.508-98.35h43.741c27.271 0 50.221 18.698 56.904 43.876zM916.47 303.479h-27.541c-54.946 0-99.767 35.911-99.767 80.124v43.876c-17.753-12.96-41.176-20.993-67.029-20.993h-27.541c-55.014 0-99.835 35.843-99.835 80.057v18.36c-17.753-12.96-41.176-20.926-67.029-20.926h-27.541c-54.271 0-98.485 35.033-99.632 78.437-15.39-13.028-35.236-20.993-56.904-20.993h-48.331c-6.413-28.148 0.608-104.155-34.493-132.641-19.913-18.495-45.631 13.905-45.631 13.905 56.161 61.224 52.516 159.169 52.516 159.169 14.108 75.939-36.181 116.98-65.072 116.98-8.235 0-17.348-2.025-26.731-5.265 0 0-55.486-28.621-77.627-48.601-20.791-14.378-60.549-61.697-64.667-66.557l-1.013 1.418c-54.744-89.102 12.825-180.769 12.825-180.769 87.212-152.554 250.971-354.114 250.971-354.114 76.277-65.409 32.671-103.48 32.671-103.48l571.806-5.468 29.026 98.012c53.799 102.738 75.332 225.185 82.892 328.936-11.408-34.223-50.154-59.469-96.325-59.469zM888.929 379.553h27.541c36.316 0 67.097 21.668 67.097 47.386v298.29c0 25.651-30.781 47.386-67.097 47.386h-27.541c-36.316 0-67.029-21.668-67.029-47.386v-298.29c0-25.651 30.713-47.386 67.029-47.386zM500.187 560.12h27.541c36.383 0 67.029 21.668 67.029 47.386v298.222c0 25.651-30.646 47.386-67.029 47.386h-27.541c-36.316 0-67.097-21.736-67.097-47.386v-298.29c0.068-25.651 30.781-47.319 67.097-47.319zM694.592 482.628h27.541c36.316 0 67.029 21.668 67.029 47.386v298.222c0 25.651-30.713 47.386-67.029 47.386h-27.541c-36.383 0-67.097-21.668-67.097-47.386v-298.29c0-25.651 30.713-47.319 67.097-47.319z" />
<glyph unicode="&#x62;" glyph-name="bomb1" d="M822.626 713.374c12.5 12.5 12.5 32.75 0 45.25s-32.75 12.5-45.25 0l-82.75-82.75-41.376 41.376c-24.968 25-65.532 25-90.5 0l-32-32c-2.522-2.522-4.608-5.296-6.62-8.102-43.478 17.122-90.648 26.852-140.13 26.852-211.734 0-384-172.266-384-384s172.266-384 384-384 384 172.266 384 384c0 49.482-9.728 96.654-26.852 140.13 2.804 2.014 5.58 4.098 8.102 6.62l32 32c25 24.984 25 65.516 0 90.5l-41.376 41.376 82.752 82.748zM384 512c-105.876 0-192-86.126-192-192 0-17.672-14.328-32-32-32s-32 14.328-32 32c0 141.156 114.844 256 256 256 17.672 0 32-14.328 32-32s-14.328-32-32-32zM918.040 662.040c-12.5 12.5-32.75 12.5-45.25 0s-12.5-32.75 0-45.25l32-32c6.25-6.25 14.438-9.376 22.626-9.376s16.376 3.126 22.626 9.376c12.5 12.5 12.5 32.75 0 45.25l-32.002 32zM680.79 808.79c6.25-6.25 14.438-9.376 22.626-9.376s16.376 3.126 22.626 9.376c12.5 12.5 12.5 32.75 0 45.25l-32 32c-12.5 12.5-32.75 12.5-45.25 0s-12.5-32.75 0-45.25l31.998-32zM800 832c17.688 0 32 14.328 32 32v64c0 17.672-14.312 32-32 32s-32-14.328-32-32v-64c0-17.672 14.312-32 32-32zM992 766.828h-64c-17.688 0-32-14.328-32-32s14.312-32 32-32h64c17.688 0 32 14.328 32 32s-14.312 32-32 32zM873.96 808.79c6.25-6.25 14.438-9.376 22.626-9.376s16.376 3.126 22.626 9.376l64 64c12.5 12.5 12.5 32.75 0 45.25s-32.75 12.5-45.25 0l-64-64c-12.502-12.5-12.502-32.75-0.002-45.25z" />
<glyph unicode="&#x63;" glyph-name="mental-health" d="M678.134 709.315c-22.538 0-40.899-18.299-40.899-41.021 0-22.682 18.36-40.97 40.899-40.97 22.61 0 40.899 18.289 40.899 40.97 0 22.723-18.289 41.021-40.899 41.021zM668.518 373.289c0-22.682 18.432-41.011 41.083-41.011 22.538 0 40.827 18.33 40.827 41.011 0 22.661-18.289 40.991-40.827 40.991-22.661 0-41.083-18.33-41.083-40.991zM369.101 753.797c-22.682 0-41.042-18.371-41.042-41.083 0-22.651 18.36-40.98 41.042-40.98 22.723 0 41.052 18.34 41.052 40.98 0 22.712-18.33 41.083-41.052 41.083zM554.148 960c-176.302 0-338.893-132.342-372.685-278.19-7.649-32.42-16.026-117.094-16.026-117.094l-81.183-204.411c-1.556-3.676-2.335-7.823-2.335-12.175 0-17.234 14.121-31.314 31.427-31.314h52.091v-108.595c0-84.685 68.608-153.272 153.18-153.272h60.887v-118.948h414.577v329.789c90.419 71.127 148.48 181.617 148.48 305.582 0 214.661-173.947 388.628-388.413 388.628zM260.864 487.25c-23.767 0-43.203 19.425-43.203 43.459 0 23.89 19.425 43.284 43.203 43.284 23.992 0 43.52-19.395 43.52-43.284 0-24.044-19.528-43.459-43.52-43.459zM834.253 545.956l-40.407-40.417-49.285 34.796c-9.492-4.956-19.466-8.888-29.87-11.54l-9.093-53.617h18.821l5.028-28.662c1.976-0.532 3.963-0.819 5.908-1.526 5.059-1.874 9.728-4.28 14.080-7.045l22.723 15.964 18.637-18.616-16.732-23.747c3.615-6.369 6.441-13.158 8.028-20.337l27.423-4.71v-26.368l-28.549-4.915c-0.573-2.007-0.85-4.035-1.556-6.011-1.874-5.1-4.311-9.81-7.137-14.234l16.046-22.61-18.668-18.647-23.613 16.773c-6.4-3.615-13.158-6.441-20.378-8.028l-4.813-27.464h-26.358l-4.751 28.662c-2.048 0.573-4.096 0.85-6.124 1.597-5.059 1.874-9.759 4.28-14.152 7.066l-22.753-16.128-18.545 18.678 16.773 23.706c-3.615 6.41-6.441 13.158-8.028 20.378l-27.566 4.782v26.255l28.805 4.915c0.563 2.017 0.85 4.045 1.587 6.052 1.843 5.028 4.239 9.697 7.004 14.090l-16.056 22.753 18.606 18.616 23.747-16.773c6.359 3.574 13.117 6.4 20.296 8.028l4.106 23.818h-49.644l-10.373 59.464c-2.232 0.707-4.465 1.28-6.687 2.13-7.997 2.939-15.432 6.615-22.538 10.752l-47.565-33.516-40.335 40.458 34.714 49.121c-4.987 9.513-8.919 19.528-11.602 29.972l-57.19 9.841v46.961l-28.795-4.966c-0.461-1.382-0.573-2.796-1.096-4.137-1.884-5.1-4.321-9.769-6.973-14.295l22.077-31.283-26.583-26.501-32.41 22.856c-6.021-3.113-12.237-5.663-18.79-7.393l-6.554-37.509-37.325-0.031-6.799 39.137c-1.311 0.461-2.693 0.563-4.004 1.065-5.13 1.915-9.871 4.393-14.428 7.076l-31.386-22.118-26.47 26.542 22.958 32.522c-3.041 5.949-5.407 12.206-7.137 18.657l-37.765 6.472v37.55l38.922 6.687c0.43 1.382 0.748 2.724 1.239 4.065 1.884 5.13 4.362 9.83 7.014 14.367l-22.118 31.283 26.44 26.511 32.553-22.897c6.021 3.123 12.278 5.704 18.862 7.444l6.543 37.54h37.335l6.81-39.158c1.352-0.43 2.734-0.532 4.035-1.024 5.14-1.915 9.841-4.403 14.408-7.045l31.283 22.047 26.573-26.511-22.999-32.481c3.123-5.98 5.663-12.206 7.363-18.76l37.509-6.441v-27.29l49.121 8.428c0.707 2.232 1.27 4.454 2.12 6.687 2.939 8.038 6.656 15.575 10.875 22.723l-33.751 47.38 40.591 40.499 49.224-34.796c9.523 4.966 19.538 8.888 29.983 11.581l9.656 57.221h57.211l10.373-59.412c2.232-0.666 4.465-1.28 6.687-2.089 7.956-2.939 15.432-6.656 22.497-10.803l47.585 33.516 40.274-40.417-34.714-49.295c4.915-9.441 8.837-19.425 11.53-29.798l57.303-9.871v-57.231l-59.453-10.23c-0.707-2.232-1.28-4.465-2.089-6.656-2.97-7.997-6.687-15.462-10.875-22.579l33.597-47.555z" />
<glyph unicode="&#x64;" glyph-name="psycho" d="M460.268 726.026c12.032 3.779 18.739 16.599 14.961 28.631-3.789 12.052-16.609 18.749-28.641 14.961-12.052-3.779-18.749-16.589-14.971-28.652 3.789-12.032 16.609-18.708 28.652-14.94zM589.455 648.919c12.698 7.936 16.599 24.668 8.663 37.386-7.916 12.708-24.678 16.579-37.396 8.653-12.698-7.926-16.579-24.668-8.643-37.396 7.926-12.708 24.678-16.568 37.376-8.643zM350.29 558.705c2.181-15.176 5.489-28.6 8.929-39.178 10.988-33.72 37.571-63.949 38.328-64.676 38.851-38.82 64.41-56.607 108.155-56.607 47.278 0 79.79 9.216 124.17 72.704 2.202 3.154 4.096 5.652 5.96 7.455 7.885 11.796 15.657 26.010 21.381 42.332 3.779 11.172 6.656 24.238 9.021 38.052 18.944 2.775 33.741 25.344 33.741 53.023 0 23.665-10.865 43.551-25.815 50.637 5.243 31.56 6.82 65.454 5.878 74.455-1.935 19.651 0.215 71.27-45.804 91.392-31.099 11.94-51.876 2.591-50.524 0.737 0 0-13.158 32.051-57.682 37.181-16.896 1.956-31.56 0.85-43.848 0.891-20.89 0.031-43.704-6.011-63.406-11.94-15.145-4.536-36.731-12.595-47.585-25.324-14.889-17.408-16.138-40.376-11.008-61.583-18.657-3.973-25.477-22.743-24.576-39.148 1.935-35.758 10.394-64.573 9.103-64.952-16.947-5.181-29.655-26.583-29.655-52.265 0.010-28.416 15.606-51.436 35.236-53.187zM530.002 702.341c0.041 0.061 0.061 0.072 0.123 0.123 0.543 0.819 1.137 1.628 1.761 2.427 3.041 4.485 1.864 9.472-0.676 14.387-2.519 4.946-3.922 7.608-0.604 9.697 3.297 2.058 1.065 0.666 6.4 3.983 5.601 3.502 3.236 2.028 6.584 4.106 3.318 2.068 5.1-0.348 8.417-4.792 3.338-4.475 7.301-7.711 12.718-6.943 0.102 0.020 0.143-0.010 0.236 0 0.963 0.184 1.935 0.338 2.877 0.461 5.325 1.044 8.018 5.396 9.677 10.67 1.7 5.294 2.601 8.161 6.441 7.27 3.779-0.891 1.219-0.266 7.363-1.7 0.020 0 0.020 0.010 0.020-0.010 0.061-0.010 0.102-0.010 0.164-0.010 6.124-1.444 3.584-0.85 7.363-1.71 3.82-0.901 3.359-3.85 2.56-9.37-0.778-5.509-0.276-10.609 4.076-13.885 0.061-0.041 0.082-0.082 0.123-0.123 0.819-0.543 1.577-1.137 2.355-1.71 0 0 0 0 0.020-0.010 4.485-3.082 9.503-1.905 14.418 0.645 4.956 2.529 7.619 3.932 9.697 0.604 2.079-3.308 0.655-1.055 4.004-6.42 0.020-0.010 0.041-0.020 0.041-0.041 0.041-0.031 0.041-0.051 0.061-0.092 3.338-5.356 1.935-3.123 4.004-6.41 2.079-3.328-0.338-5.11-4.803-8.458-4.465-3.328-7.7-7.27-6.922-12.667 0.020-0.123-0.020-0.174-0.020-0.287 0.184-0.963 0.338-1.905 0.461-2.847 1.044-5.335 5.376-7.997 10.66-9.697 5.304-1.7 8.161-2.611 7.281-6.42-0.881-3.799-0.276-1.208-1.679-7.383-0.020-0.010-0.020-0.041-0.020-0.061-0.020-0.031-0.020-0.051-0.020-0.102-1.444-6.144-0.86-3.564-1.72-7.342-0.901-3.82-3.86-3.389-9.359-2.58-5.519 0.809-10.598 0.297-13.875-4.065-0.061-0.072-0.102-0.072-0.143-0.123-0.543-0.829-1.137-1.577-1.72-2.365-3.082-4.506-1.905-9.503 0.655-14.449 2.54-4.936 3.922-7.619 0.604-9.687-3.297-2.058-1.075-0.666-6.42-3.994-0.020-0.020-0.020-0.041-0.061-0.061l-0.102-0.031c-5.335-3.348-3.123-1.946-6.4-4.024-3.318-2.079-5.12 0.369-8.438 4.813-3.318 4.454-7.281 7.69-12.677 6.922-0.123-0.020-0.164 0.010-0.276 0-0.963-0.205-1.925-0.328-2.898-0.461-5.304-1.065-7.956-5.396-9.656-10.65-1.7-5.284-2.601-8.161-6.42-7.291-3.799 0.881-1.219 0.276-7.363 1.7-0.041 0.010-0.041 0.020-0.082 0.010-0.041 0-0.061 0.020-0.102 0.020-6.144 1.444-3.584 0.85-7.383 1.71-3.799 0.891-3.338 3.86-2.56 9.38 0.799 5.478 0.276 10.588-4.076 13.865-0.061 0.041-0.061 0.072-0.102 0.123-0.86 0.553-1.638 1.157-2.437 1.782-4.495 3.021-9.441 1.833-14.377-0.696-4.956-2.54-7.619-3.932-9.718-0.594-2.048 3.297-0.655 1.044-3.994 6.4-0.031 0.051-0.061 0.102-0.092 0.154-3.338 5.356-1.925 3.113-4.004 6.42-2.089 3.308 0.348 5.11 4.813 8.417 4.454 3.338 7.711 7.281 6.922 12.698-0.020 0.082 0.010 0.133 0.010 0.225-0.195 0.993-0.369 1.976-0.492 2.99-1.065 5.274-5.376 7.916-10.619 9.605-5.304 1.72-8.172 2.611-7.281 6.441 0.87 3.789 0.266 1.208 1.71 7.352 0.010 0.072 0.010 0.113 0.041 0.174 1.413 6.144 0.829 3.574 1.71 7.373 0.881 3.809 3.85 3.369 9.359 2.56 5.478-0.799 10.568-0.297 13.865 4.055zM399.38 741.765c4.342 1.782 7.823 4.311 8.325 8.888 0.010 0.072 0.041 0.102 0.051 0.164 0.051 0.86 0.133 1.71 0.236 2.56 0.225 4.516-2.724 7.598-6.636 10.066-3.953 2.509-6.103 3.86-4.567 6.789 1.505 2.888 0.471 0.922 2.939 5.642 0.020 0.051 0.031 0.092 0.061 0.143 2.478 4.69 1.434 2.724 2.949 5.632 1.526 2.929 3.86 1.925 8.182 0.113 4.321-1.833 8.571-2.488 12.175 0.399 0.031 0.031 0.061 0.031 0.113 0.061 0.625 0.553 1.29 1.065 1.946 1.577 3.42 3.041 3.512 7.332 2.499 11.889-1.014 4.577-1.587 7.045 1.567 8.038 3.123 0.963 0.993 0.297 6.062 1.915 5.294 1.659 3.052 0.952 6.205 1.946 3.154 0.973 4.096-1.372 5.868-5.704 1.761-4.332 4.311-7.823 8.878-8.346 0.092 0 0.123-0.031 0.215-0.051 0.809-0.051 1.628-0.123 2.437-0.215 4.547-0.287 7.66 2.673 10.138 6.615 2.529 3.953 3.86 6.093 6.789 4.567 2.908-1.505 0.942-0.481 5.642-2.949 0.010 0 0.020 0 0.031-0.010 0.041-0.010 0.061-0.020 0.113-0.041 4.69-2.488 2.734-1.423 5.632-2.959 2.918-1.526 1.925-3.85 0.123-8.172-1.823-4.321-2.478-8.581 0.379-12.175 0.041-0.051 0.041-0.082 0.082-0.143 0.532-0.614 1.034-1.249 1.536-1.894 0 0 0 0 0.010 0 3.031-3.461 7.342-3.543 11.909-2.519 4.577 1.024 7.045 1.597 8.028-1.556 0.973-3.154 0.317-1.004 1.915-6.072 0.010-0.020 0.010-0.020 0.010-0.061 0.020-0.031 0.020-0.051 0.031-0.072 1.577-5.089 0.911-2.949 1.905-6.083 0.973-3.144-1.382-4.065-5.704-5.857-4.332-1.772-7.823-4.301-8.335-8.868 0-0.113-0.041-0.133-0.061-0.236-0.051-0.809-0.123-1.608-0.225-2.417-0.287-4.557 2.703-7.66 6.646-10.148 3.953-2.519 6.093-3.871 4.567-6.779-1.516-2.898-0.471-0.942-2.939-5.652-0.010-0.020-0.010-0.031-0.020-0.031-0.020-0.031-0.020-0.061-0.041-0.092-2.478-4.71-1.434-2.734-2.949-5.663-1.536-2.908-3.85-1.905-8.182-0.102-4.311 1.802-8.571 2.478-12.175-0.389-0.051-0.041-0.082-0.041-0.133-0.082-0.614-0.532-1.239-1.065-1.905-1.546-3.461-3.021-3.553-7.342-2.529-11.919 1.034-4.557 1.587-7.035-1.556-8.018-3.133-0.983-0.993-0.307-6.072-1.915-0.020-0.020-0.031-0.020-0.051-0.020-0.031 0-0.051-0.010-0.092-0.031-5.069-1.587-2.949-0.922-6.062-1.894-3.164-0.973-4.096 1.362-5.878 5.693-1.761 4.332-4.301 7.834-8.868 8.346-0.092 0-0.133 0.031-0.205 0.041-0.84 0.061-1.669 0.143-2.488 0.236-4.526 0.266-7.639-2.714-10.117-6.636-2.499-3.973-3.85-6.093-6.769-4.567s-0.942 0.481-5.652 2.939c-0.010 0.020-0.020 0.020-0.041 0.031-0.031 0-0.051 0.020-0.082 0.041-4.7 2.458-2.734 1.434-5.652 2.949-2.898 1.546-1.915 3.85-0.102 8.182 1.802 4.311 2.468 8.571-0.389 12.175-0.041 0.031-0.041 0.051-0.061 0.102-0.553 0.635-1.096 1.311-1.608 1.966-3.031 3.43-7.322 3.533-11.868 2.509-4.567-1.024-7.035-1.597-8.028 1.556-0.973 3.123-0.307 0.993-1.894 6.062-0.020 0.072-0.031 0.113-0.041 0.143-1.597 5.069-0.922 2.949-1.915 6.083-0.983 3.123 1.372 4.045 5.704 5.827zM968.202 554.803c-7.096 6.564-22.282 15.432-36.884 11.397-3.543-0.973-7.055-2.693-10.424-5.396-0.082-0.072-0.205-0.174-0.297-0.266-3.297-2.683-7.055-6.205-11.121-10.394-10.865 3.523-23.859 3.645-34.959-6.144-19.722-17.377-45.455-67.625-56.32-91.781-2.724-6.021-6.185-12.984-10.004-20.183-3.297-6.226-6.902-12.605-10.496-18.749-3.215-1.731-6.339-3.84-9.257-6.4-12.595-11.1-26.358-33.341-38.564-52.972l-2.98-4.772c-20.777-23.613-46.182-31.621-66.058-35.963-23.603-5.161-67.123-25.313-87.859-43.54-18.883-16.65-60.457-64.297-65.516-83.2-0.922-3.471-2.161-7.322-3.604-11.766-1.976-6.134-4.403-13.67-7.004-23.357-1.567-5.857-3.195-12.544-4.864-20.193-1.649 7.66-3.287 14.336-4.874 20.193-2.58 9.687-5.007 17.224-6.984 23.357-1.434 4.454-2.673 8.294-3.604 11.766-5.069 18.903-46.664 66.55-65.536 83.2-20.726 18.237-64.236 38.39-87.849 43.54-19.886 4.342-45.292 12.349-66.068 35.963l-2.97 4.772c-12.175 19.63-25.979 41.861-38.574 52.972-2.908 2.56-6.031 4.669-9.236 6.4-3.635 6.144-7.219 12.524-10.506 18.749-3.84 7.199-7.311 14.152-10.025 20.183-10.834 24.156-36.557 74.404-56.289 91.781-11.121 9.789-24.095 9.656-34.97 6.144-4.055 4.188-7.793 7.711-11.11 10.394-0.082 0.092-0.215 0.195-0.287 0.266-3.359 2.714-6.881 4.424-10.424 5.396-14.623 4.035-29.788-4.833-36.874-11.397l-4.608-4.25 2.488-5.734c0.737-1.69 6.789-15.585 14.787-33.987 16.927-38.881 42.68-97.884 45.906-104.428 1.761-3.584 3.297-7.537 4.772-11.377 2.396-6.257 4.69-12.145 7.997-16.753 4.28-5.919 44.319-68.803 48.66-75.981 0.911-1.516 2.458-5.786 3.809-9.554 4.383-12.268 9.861-27.515 20.337-34.028 6.134-3.84 18.135-15.974 33.28-31.314 10.179-10.342 21.75-22.057 35.164-35.011 15.227-14.684 29.932-25.641 42.895-35.318 17.388-12.974 31.109-23.224 40.233-37.437 4.71-7.342 6.195-27.392 5.837-52.163-0.164-12.052-0.748-25.508-1.679-38.861 5.99 0.41 306.606 0.41 312.607 0-0.922 13.353-1.516 26.819-1.7 38.861-0.338 24.76 1.137 44.82 5.857 52.163 9.124 14.213 22.856 24.463 40.243 37.437 12.964 9.677 27.658 20.644 42.885 35.318 13.435 12.954 25.016 24.668 35.185 35.011 15.145 15.35 27.116 27.474 33.28 31.314 10.455 6.513 15.944 21.76 20.316 34.028 1.362 3.758 2.898 8.038 3.82 9.554 4.321 7.178 44.38 70.062 48.64 75.981 3.318 4.608 5.601 10.496 7.997 16.753 1.495 3.84 3.021 7.793 4.803 11.377 3.195 6.543 28.979 65.546 45.896 104.428 7.977 18.401 14.060 32.307 14.776 33.987l2.509 5.734-4.598 4.25zM137.82 530.77c13.978-12.339 34.171-48.722 46.756-74.854 1.894-3.912 3.604-7.598 5.1-10.916 3.195-7.137 7.69-16.026 12.759-25.364l-29.512 33.26c-1.137 1.659-2.294 3.369-3.512 5.13-1.894 5.847-4.065 11.489-6.38 17.009-9.789 23.419-22.784 43.991-35.174 59.648 3.42-0.113 6.861-1.188 9.964-3.912zM501.555 47.77h-126.976c0.338 8.776 0.532 17.572 0.502 25.375-0.092 24.678-2.335 46.121-8.684 56.033-10.854 16.916-26.481 28.549-44.554 42.045-12.544 9.359-26.757 19.958-41.175 33.884-13.271 12.8-24.75 24.433-34.877 34.673-17.213 17.459-28.59 28.989-36.495 33.915-5.243 3.267-10.148 16.876-13.066 25.006-1.946 5.417-3.482 9.687-5.294 12.718-4.588 7.557-44.861 70.799-49.439 77.179-2.007 2.755-3.871 7.629-5.878 12.8-1.618 4.178-3.308 8.53-5.386 12.79-3.092 6.287-30.321 68.669-50.309 114.606-2.55 5.868-4.977 11.469-7.25 16.671 5.1 3.174 13.169 6.615 19.333 1.628 0.195-0.154 0.41-0.328 0.594-0.512 1.7-1.403 3.543-3.052 5.53-4.977 1.976-1.915 4.055-4.055 6.226-6.431 1.894-2.048 3.83-4.291 5.827-6.676 6.113-7.332 12.595-16.159 18.842-26.092 9.318-14.838 18.033-32.215 23.992-50.934l0.379-1.208 0.727-1.055c12.585-18.637 21.412-30.792 27.453-38.676-1.106-0.87-2.181-1.823-3.195-2.836-14.848-14.909-10.424-25.836 15.094-65.905 4.137-7.7 6.799-14.172 8.94-19.384 1.403-3.42 2.621-6.4 3.953-9.032 0.973-1.915 1.997-4.915 2.98-7.813 2.048-6.093 3.994-11.848 7.741-15.37 0.563-0.543 1.628-1.475 3.205-2.908 23.030-20.582 36.915-34.755 41.329-42.117 9.134-15.227 27.044-30.904 27.781-31.57l11.602 13.302c-0.205 0.174-13.107 11.52-21.371 23.040-1.055 1.434-2.017 2.877-2.877 4.301-7.107 11.899-27.617 30.925-44.708 46.213-1.188 1.065-2.222 1.987-2.693 2.437-0.901 1.229-2.406 5.663-3.318 8.335-1.167 3.471-2.386 7.066-3.932 10.127-1.014 2.028-2.109 4.68-3.389 7.772-2.314 5.652-5.202 12.677-9.82 21.289l-0.154 0.287-0.174 0.266c-24.125 37.837-22.385 39.598-17.705 44.288 0.645 0.676 1.331 1.239 2.038 1.802 0.451 0.328 0.901 0.635 1.341 0.932 1.976 1.29 4.065 2.15 6.226 2.662 4.413 1.024 9.073 0.553 13.466-1.044 3.625-1.311 7.025-3.359 9.933-5.929 5.796-5.1 12.483-13.947 19.118-23.798 5.56-8.243 11.11-17.183 16.108-25.221l3.42-5.489 0.369-0.604c-0.010 0 0.451-0.543 0.451-0.543 24.535-28.16 55.153-37.478 76.042-42.045 21.084-4.588 61.46-23.276 79.944-39.557 19.988-17.603 56.832-62.065 60.129-74.496 1.065-3.922 2.355-7.967 3.881-12.646 2.54-7.895 5.591-17.428 8.806-30.556 2.693-11.039 5.509-24.627 8.223-42.045 0.389-2.591 0.788-5.714 1.167-9.247v-39.66zM834.304 445c1.495 3.328 3.236 7.004 5.1 10.916 12.616 26.132 32.799 62.515 46.776 74.854 3.082 2.724 6.543 3.799 9.943 3.912-12.36-15.647-25.364-36.229-35.164-59.648-2.304-5.53-4.485-11.162-6.4-17.009-1.198-1.772-2.345-3.471-3.502-5.13l-29.501-33.26c5.069 9.339 9.585 18.227 12.749 25.364zM944.077 528.783c-19.978-45.937-47.217-108.319-50.299-114.606-2.099-4.26-3.779-8.602-5.396-12.79-1.997-5.161-3.881-10.035-5.857-12.8-4.598-6.38-44.882-69.622-49.48-77.179-1.802-3.031-3.338-7.301-5.284-12.718-2.918-8.131-7.782-21.75-13.036-25.006-7.936-4.925-19.323-16.445-36.516-33.915-10.117-10.24-21.576-21.873-34.877-34.673-14.418-13.926-28.641-24.535-41.165-33.884-18.104-13.496-33.7-25.129-44.544-42.045-6.38-9.902-8.622-31.355-8.704-56.033-0.041-7.803 0.164-16.599 0.502-25.375h-126.996v39.629c0.399 3.533 0.799 6.656 1.198 9.247 2.683 17.418 5.499 31.007 8.202 42.045 3.236 13.128 6.277 22.651 8.817 30.556 1.536 4.68 2.816 8.735 3.86 12.646 3.318 12.431 40.141 56.893 60.14 74.496 18.483 16.271 58.86 34.97 79.944 39.557 20.9 4.567 51.517 13.885 76.063 42.045 0 0 0.461 0.543 0.44 0.543l0.399 0.604 3.4 5.489c4.977 8.049 10.537 16.988 16.097 25.221 6.656 9.841 13.343 18.698 19.139 23.798 2.877 2.56 6.298 4.618 9.923 5.929 4.383 1.587 9.042 2.068 13.435 1.044 2.181-0.512 4.28-1.372 6.257-2.662 0.44-0.297 0.881-0.614 1.341-0.932 0.696-0.563 1.403-1.126 2.038-1.802 4.68-4.69 6.42-6.441-17.715-44.288l-0.184-0.266-0.113-0.287c-4.639-8.612-7.516-15.636-9.841-21.289-1.28-3.092-2.355-5.745-3.4-7.772-1.536-3.062-2.744-6.656-3.922-10.127-0.922-2.673-2.396-7.107-3.297-8.335-0.481-0.451-1.495-1.372-2.703-2.437-17.080-15.288-37.622-34.314-44.698-46.213-0.86-1.434-1.843-2.877-2.857-4.301-8.264-11.52-21.197-22.856-21.381-23.040l11.581-13.302c0.737 0.676 18.657 16.353 27.822 31.57 4.403 7.363 18.299 21.535 41.318 42.117 1.577 1.434 2.621 2.365 3.185 2.908 3.738 3.533 5.704 9.277 7.762 15.37 0.983 2.898 1.997 5.898 2.959 7.813 1.341 2.642 2.56 5.612 3.942 9.032 2.161 5.212 4.844 11.684 8.96 19.384 25.498 40.069 29.962 50.995 15.084 65.905-1.004 1.014-2.079 1.956-3.195 2.836 6.083 7.885 14.899 20.040 27.484 38.676l0.717 1.055 0.379 1.208c5.96 18.729 14.684 36.096 23.982 50.934 6.236 9.933 12.739 18.76 18.842 26.092 1.997 2.386 3.963 4.628 5.837 6.676 2.181 2.376 4.239 4.526 6.216 6.431 1.997 1.925 3.84 3.574 5.54 4.977 0.205 0.184 0.42 0.358 0.584 0.512 6.185 4.987 14.244 1.546 19.343-1.628-2.263-5.181-4.71-10.783-7.27-16.64z" />
<glyph unicode="&#x65;" glyph-name="teasing-boy" d="M372.859 324.323c7.384 7.381 7.384 19.348 0 26.73-28.31 28.31-74.379 28.313-102.691 0-7.384-7.381-7.384-19.348 0-26.73 7.381-7.381 19.348-7.381 26.73 0 13.576 13.571 35.658 13.569 49.23 0 3.691-3.691 8.527-5.536 13.366-5.536s9.675 1.845 13.366 5.536zM651.138 351.053c-7.381-7.381-7.381-19.348 0-26.73 7.384-7.381 19.348-7.381 26.732 0 13.574 13.574 35.658 13.571 49.227 0 3.693-3.691 8.527-5.536 13.366-5.536s9.675 1.845 13.366 5.536c7.381 7.381 7.381 19.348 0 26.73-28.315 28.315-74.376 28.317-102.691 0zM662.952 258.583c-4.551 3.584-10.486 4.888-16.119 3.532-21.201-5.096-42.829-9.007-64.313-11.627-46.798-5.763-94.247-5.765-141.064 0.002-21.458 2.616-43.089 6.526-64.292 11.622-5.626 1.354-11.57 0.050-16.116-3.532-4.548-3.584-7.202-9.056-7.202-14.845v-21.784c0-45.593 26.174-86.594 66.423-106.11v-37.111c0-50.581 41.152-91.733 91.733-91.733s91.733 41.152 91.733 91.733v37.109c40.247 19.516 66.421 60.516 66.421 106.11v21.784c-0.005 5.793-2.658 11.265-7.204 14.85zM603.73 160.589v4.463c0 10.439-8.463 18.902-18.902 18.902s-18.902-8.463-18.902-18.902v-86.32c0-29.735-24.192-53.929-53.929-53.929s-53.929 24.192-53.929 53.929v86.32c0 10.439-8.463 18.902-18.902 18.902s-18.902-8.463-18.902-18.902v-4.463c-17.338 14.566-28.1 36.124-28.601 59.64 15.025-2.996 30.153-5.427 45.192-7.261 49.863-6.141 100.421-6.143 150.257-0.002 15.058 1.836 30.189 4.269 45.215 7.265-0.499-23.519-11.261-45.076-28.598-59.642zM960.076 354.62c0 26.089-9.366 50.546-26.507 69.807 6.928 141.759 10.656 236.502-34.179 323.783-30.541 59.463-79.976 109.158-146.933 147.701-78.083 44.951-167.153 66.993-257.601 63.782-79.47-2.835-153.447-39.951-204.352-102.202-65.821-3.714-125.747-39.446-157.939-94.771-2.771-4.766-5.444-9.647-7.941-14.509-44.866-87.338-41.133-182.083-34.2-323.866-16.473-18.583-26.503-42.997-26.503-69.722 0-55.113 42.588-100.435 96.576-104.86 22.481-72.439 82.043-154.52 177.975-244.96 48.653-45.868 111.093-68.803 173.53-68.803 62.44 0 124.877 22.935 173.53 68.803 95.929 90.438 155.491 172.519 177.972 244.958 53.988 4.43 96.572 49.752 96.572 104.86zM496.203 921.913c83.359 2.975 165.45-17.349 237.392-58.763 60.542-34.85 105.009-79.333 132.166-132.211 37.754-73.5 37.248-153.501 30.474-295.768l-42.222-2.327c-284.55-9.281-441.77 122.914-488.477 170.083l-45.482 230.954c44.008 53.622 107.743 85.594 176.148 88.033zM158.253 730.939c2.197 4.279 4.551 8.577 6.989 12.773 24.513 42.132 69.322 70.1 119.192 75.38l43.973-223.273c-30.068-68.999-81.457-105.278-161.289-113.98-9.59-1.044-16.853-9.144-16.853-18.791v-4.912c-8.109-1.477-15.896-3.877-23.249-7.105-6.011 132.388-5.106 209.155 31.238 279.907zM101.725 354.623c0 30.626 20.527 56.533 48.54 64.727v-106.66c0-7.606 0.517-15.351 1.493-23.218-28.773 7.698-50.033 33.985-50.033 65.152zM659.604 32.307c-82.766-78.024-212.43-78.027-295.196 0-115.36 108.756-176.337 205.711-176.337 280.38l0.002 133.834c76.973 12.376 131.549 50.229 165.849 115.121 29.080-26.73 76.718-63.9 144.301-96.425 100.477-48.353 213.971-72.099 337.714-70.589v-81.939c0-74.672-60.975-171.626-176.332-280.382zM872.247 289.471c0.976 7.868 1.493 15.613 1.493 23.218v83.383l32.825 1.807c10.172-12.111 15.707-27.204 15.707-43.259 0-31.164-21.255-57.45-50.026-65.15zM511.998 181.499c-10.439 0-18.902-8.463-18.902-18.902v-93.576c0-10.439 8.463-18.902 18.902-18.902s18.902 8.463 18.902 18.902v93.576c0 10.441-8.461 18.902-18.902 18.902z" />
<glyph unicode="&#x66;" glyph-name="terrorism" d="M845.19 746.080h-45.862v103.836c0 9.302-7.538 16.842-16.842 16.842h-157.2c-9.304 0-16.842-7.542-16.842-16.842v-103.834h-37.68v103.834c0 9.302-7.538 16.842-16.842 16.842h-61.756v38.392c-0.004 30.244-24.608 54.85-54.852 54.85h-152.558c-30.246 0-54.85-24.606-54.85-54.85v-38.392h-61.756c-9.304 0-16.842-7.542-16.842-16.842v-134.406h-13.384c-9.304 0-16.842-7.542-16.842-16.842v-90.952c0-9.302 7.538-16.842 16.842-16.842h13.384v-285.742h-13.376c-9.304 0-16.842-7.542-16.842-16.842v-90.946c0-9.302 7.538-16.842 16.842-16.842h13.376v-134.412c0-9.302 7.538-16.842 16.842-16.842h157.2c9.304 0 16.842 7.542 16.842 16.842v134.41h37.682v-134.412c0-9.302 7.538-16.842 16.842-16.842h61.752v-38.398c0-30.244 24.604-54.846 54.85-54.846h152.558c30.246 0 54.85 24.604 54.85 54.846v38.398h61.76c9.304 0 16.842 7.542 16.842 16.842v134.412h13.378c9.304 0 16.842 7.542 16.842 16.842v90.946c0 9.302-7.538 16.842-16.842 16.842h-13.378v127.21h45.862c31.832 0 57.73 25.898 57.73 57.73v198.282c0 31.832-25.898 57.728-57.73 57.728zM642.128 833.072h123.514v-86.992h-123.514v86.992zM537.076 833.072v-86.992h-44.442c-22.020 0-41.192-12.396-50.926-30.57h-28.146v117.562h123.514zM492.634 432.338h44.442v-127.206h-123.514v285.742h21.342v-100.806c0-31.834 25.898-57.73 57.73-57.73zM284.756 926.314h152.558c11.668 0 21.164-9.494 21.164-21.164v-38.392h-61.758c-9.304 0-16.842-7.542-16.842-16.842v-134.406h-37.682v134.406c0 9.302-7.538 16.842-16.842 16.842h-61.756v38.392h-0.002c-0.004 11.67 9.49 21.164 21.16 21.164zM184.992 833.072h123.514v-117.562h-123.514v117.562zM154.768 681.824h280.136v-57.266h-280.136v57.266zM379.878 590.874v-285.742h-37.682v285.742h37.682zM308.506 590.874v-285.742h-123.514v285.742h123.514zM308.506 62.93h-123.514v117.57h123.514v-117.57zM413.562 62.93v117.57h123.514v-117.57h-123.514zM665.878-30.314h-152.558c-11.668 0-21.164 9.494-21.164 21.162v38.398h61.762c9.304 0 16.842 7.542 16.842 16.842v134.412h37.68v-134.412c0-9.302 7.538-16.842 16.842-16.842h61.754v-38.398h0.002c0.002-11.67-9.492-21.162-21.16-21.162zM765.642 62.93h-123.514v117.57h123.514v-117.57zM795.864 214.184h-641.090v57.262h641.088v-57.262zM570.762 305.132v127.208h37.68v-127.208h-37.68zM642.128 305.132v127.208h123.514v-127.208h-123.514zM869.234 490.068c0-13.258-10.786-24.044-24.044-24.044h-352.556c-13.258 0-24.044 10.786-24.044 24.044v198.282c0 13.258 10.786 24.044 24.044 24.044h352.556c13.258 0 24.044-10.786 24.044-24.044v-198.282zM829.934 689.94h-322.044c-9.304 0-16.842-7.542-16.842-16.842v-167.772c0-9.302 7.538-16.842 16.842-16.842h322.046c9.304 0 16.842 7.542 16.842 16.842v167.772c0 9.302-7.54 16.842-16.844 16.842zM813.092 522.168h-288.36v134.086h288.36v-134.086zM774.138 580.084h-54.696c-9.304 0-16.842-7.542-16.842-16.842s7.538-16.842 16.842-16.842h54.696c9.304 0 16.842 7.542 16.842 16.842s-7.538 16.842-16.842 16.842z" />
<glyph unicode="&#x67;" glyph-name="upload" d="M869.77 307.416v-233.924h-715.642v233.924h-137.424v-302.688c0-37.951 30.744-68.729 68.729-68.729h852.997c38.088 0 68.866 30.744 68.866 68.729v302.688h-137.526zM499.344 950.879l-196.827-237.819c0 0-29.89-28.216 2.528-28.216 32.486 0 110.882 0 110.882 0s0-19.163 0-48.302c0-83.862 0-236.111 0-298.178 0 0-4.475-16.806 21.076-16.806 25.62 0 137.902 0 156.109 0 18.344 0 17.797 14.142 17.797 14.142 0 60.326 0 217.767 0 298.623 0 26.303 0 43.485 0 43.485s63.058 0 102.547 0 9.735 29.411 9.735 29.411-167.518 222.31-190.883 245.778c-16.806 16.909-32.964-2.118-32.964-2.118z" />
<glyph unicode="&#x68;" glyph-name="poisonous-gas" horiz-adv-x="652" d="M44.041 621.641c13.956-1.779 23.873-14.574 22.112-28.525-0.426-3.307-0.776-6.469-1.082-9.503-0.046-0.47-0.077-0.914-0.12-1.378 9.72-3.243 20.418-3.948 31.128-1.455 30.875 7.186 50.078 38.049 42.892 68.927-7.191 30.878-38.054 50.081-68.932 42.89-30.875-7.186-50.078-38.049-42.89-68.927 0.398-1.715 0.875-3.391 1.421-5.030 3.774 2.072 7.98 3.205 12.259 3.205 1.064-0.003 2.146-0.074 3.21-0.204zM15.271 532.19c-1.595 8.472-2.396 17.988-2.442 29.043 0.005 11.435 0.908 24.312 2.69 38.301 0.74 5.849 3.537 11.226 7.786 15.258-1.559 0.227-3.162 0.311-4.803 0.158-11.223-1.059-19.468-11.014-18.409-22.237 2.493-25.764 7.291-45.309 15.179-60.523zM70.175 529.255c0.023 0 0.561-0.115 1.592-0.12l0.536-0.015c4.389 0.005 15.143 3.772 24.858 9.863 10.741 6.464 18.945 13.528 19.027 13.597 4.821 4.221 10.792 6.469 16.975 6.469 7.36 0 14.357-3.177 19.195-8.707 9.276-10.578 8.212-26.736-2.363-36.007l-0.092-0.082-0.186-0.143-0.62-0.518c-15.049-12.652-31.222-22.681-46.769-28.99-1.513-0.595-3.004-1.141-4.509-1.664-0.235-0.082-0.462-0.151-0.692-0.23 5.185-27.032 9.873-57.739 8.067-86.32l-84.121-73.806c-10.432-9.149-13.755-24.001-8.209-36.724l54.861-125.89c5.234-12.002 16.962-19.165 29.268-19.165 4.254 0 8.574 0.855 12.721 2.662 16.151 7.036 23.541 25.838 16.506 41.989h-0.008l-45.559 104.541 44.505 39.039 9.136-64.262c1.871-13.158 11.759-23.827 24.748-26.675l145.458-31.896c17.2-3.774 34.216 7.112 37.99 24.32 3.772 17.207-7.117 34.216-24.325 37.99l-123.826 27.16-9.825 69.133c4.813 6.421 8.6 14.992 10.823 26.43 6.599 56.69 2.866 90.202-14.502 141.684-12.846 37.365-44.426 49.193-66.212 43.762-12.497-3.116-20.969-14.457-24.544-28.349-9.026-5.698-18.647-9.506-24.018-9.192-0.048 0-0.084 0.005-0.135 0.008 0.651-2.863 1.304-4.757 1.781-5.887 1.501-3.435 2.228-3.861 2.468-4.004zM20.581 598.891c-1.794-14.102-2.644-26.552-2.649-37.638 0.071-17.057 1.98-31.072 6.37-42.885 1.883-5.076 4.183-9.789 7.066-14.092 4.79-7.056 11.307-12.762 18.532-16.24 7.194-3.506 14.77-4.831 21.752-4.831 0.031 0 0.056 0 0.087 0 8.86 0.036 16.947 1.934 24.406 4.547 1.442 0.505 2.868 1.026 4.264 1.577 25.544 10.366 45.273 28.181 46.217 28.842 8.477 7.434 9.325 20.328 1.896 28.808-7.431 8.48-20.331 9.33-28.808 1.899v0.005c0-0.005-0.005-0.005-0.186-0.163-1.378-1.189-9.565-7.993-19.657-14.064-9.952-6.239-22.276-10.93-28.132-10.624-2.1 0.010-3.223 0.355-3.966 0.715-0.977 0.587-2.442 1.194-4.777 6.543-0.924 2.205-1.812 5.257-2.542 9.095-1.011 5.326-1.71 12.211-1.689 20.864 0 6.617 0.385 14.229 1.23 22.86 0.304 3.083 0.661 6.29 1.087 9.639 1.419 11.185-6.5 21.398-17.685 22.822-4.701 0.595-9.22-0.475-12.999-2.725-0.424-0.253-0.832-0.523-1.235-0.804-4.563-3.182-7.827-8.194-8.582-14.15zM197.195 679.166c19.18-12.476 80.112-23.169 83.498-47.231 2.258-24.952-80.114-29.406-46.261-54.358 25.948-18.718 75.592-16.044 46.261-50.798-10.154-11.583-12.412-19.604 0-32.971 15.794-15.153 36.104-14.26 58.668-11.588 18.055 1.784 30.467 4.456 44.005-8.021 12.412-11.583 16.924-24.95 39.493-26.736 22.566-0.893 32.72 14.26 50.773 17.822 15.796 3.562 80.206-21.497 93.744-25.060 0 0-22.681 45.123-86.994 47.794-11.494 0.48-27.055-13.821-36.086-7.587-18.052 12.481 6.77 29.411-5.642 44.564-13.538 19.601-62.057 0.888-73.336 24.059-9.029 21.385 23.692 21.385 37.235 29.406 39.488 22.278-53.031 25.841-41.749 54.361 3.381 9.804 19.178 19.606 31.59 18.713 16.927-0.893 22.566-12.479 42.882-8.909 14.666 2.672 27.078 10.69 24.82 23.169-3.381 16.932-23.694 17.822-40.619 18.713-16.922 0.891-46.261-4.458-51.903 13.364-2.253 9.804 9.026 24.955 14.671 32.082 12.412-18.713 48.514-13.367 66.566-2.674 16.615 9.261 23.899 39.899 3.56 45.044 83.202 1.756 140.809 106.999 3.215 110.905 20.305 5.349 57.543 16.041 63.182 33.864 10.154 30.299-45.133 20.497-66.569 18.713 5.642 21.387-21.438 24.952-41.744 24.062-33.853-2.672-55.287-8.018-82.365-22.278-14.671 20.497-27.078 24.952-57.545 17.822-24.827-6.237-28.209-21.387-47.391-30.299-12.407-5.346-38.363-10.692-40.616-24.952-3.389-18.713 32.718-23.171 48.517-26.736 9.029-1.781 38.363-5.346 34.976-16.039-1.125-3.565-15.794-8.914-18.050-10.695-33.851-24.952 3.381-44.556 32.72-50.796 15.794-3.562 30.462-7.13 33.851-20.494 2.256-11.586-6.77-20.499-20.311-24.059-33.853-8.914-42.88 30.296-76.728 24.059-25.95-4.458-36.102-18.716-37.232-36.538-1.141-23.164-6.778-44.548 16.914-59.699zM488.844 408.971v-20.145c-4.285-1.039-7.48-4.877-7.48-9.483 0-4.601 3.195-8.437 7.48-9.473v-72.216c-4.285-1.039-7.48-4.877-7.48-9.478s3.195-8.439 7.48-9.478v-72.216c-4.285-1.039-7.48-4.872-7.48-9.478 0-4.601 3.195-8.437 7.48-9.473v-20.15c0-9.529 7.722-17.261 17.258-17.261h120.792c9.526 0 17.256 7.73 17.256 17.261v20.15c4.285 1.039 7.477 4.872 7.477 9.473 0 4.606-3.192 8.439-7.477 9.478v72.216c4.285 1.039 7.477 4.877 7.477 9.478s-3.192 8.439-7.477 9.478v72.216c4.285 1.039 7.477 4.872 7.477 9.473 0 4.606-3.192 8.444-7.477 9.483v20.145c0 9.529-7.727 17.261-17.256 17.261h-120.792c-9.534-0.003-17.258-7.732-17.258-17.261zM566.498 346.251c32.067-0.010 58.063-25.999 58.066-58.076-0.003-32.067-25.999-58.066-58.066-58.066-32.075 0-58.074 25.999-58.074 58.066 0 32.077 25.999 58.066 58.074 58.076zM566.498 238.402c27.481 0.051 49.719 22.288 49.77 49.772-0.051 27.492-22.288 49.726-49.77 49.777-27.489-0.051-49.729-22.283-49.777-49.777 0.048-27.484 22.288-49.724 49.777-49.772zM566.498 244.208c-8.697 0.020-16.791 2.557-23.615 6.913l17.376 27.264c1.804-1.146 3.938-1.82 6.239-1.82 2.292 0 4.428 0.674 6.234 1.82l17.371-27.264c-6.819-4.356-14.911-6.893-23.605-6.913zM586.783 327.155c14.053-7.342 23.648-22.025 23.674-38.98 0-0.643-0.023-1.281-0.051-1.919l-32.325 1.411c0.008 0.174 0.028 0.339 0.028 0.508 0 4.481-2.539 8.357-6.257 10.297l14.931 28.683zM566.498 295.435c4.004 0 7.255-3.254 7.255-7.263 0-4.006-3.249-7.258-7.255-7.258-4.012 0-7.263 3.249-7.263 7.258s3.251 7.263 7.263 7.263zM522.527 288.175c0.033 16.957 9.628 31.644 23.677 38.98l14.934-28.683c-3.71-1.939-6.252-5.816-6.252-10.297 0-0.168 0.015-0.334 0.028-0.508l-32.33-1.411c-0.036 0.638-0.056 1.276-0.056 1.919z" />
<glyph unicode="&#x69;" glyph-name="radicalisation" d="M892.479 617.71c0 288.646-231.647 356.060-393.812 340.108-162.033-15.775-303.191-100.154-303.191-242.368 0-142.389-9.317-191.346-9.317-191.346l29.444-39.861c0 0-91.587-151.443-83.589-171.219 7.866-19.732 82.928-33.488 82.928-33.488s6.108-10.065 0-107.32c-6.636-110.221 73.567-114.043 132.414-105.781 28.391 3.955 48.65 8.526 68.031 13.624l16.613-144.059h401.941l-59.68 306.137c23.688 99.496 118.217 156.41 118.217 375.574zM448.216 498.085l137.071 160.584-288.163 0.045 326.048 210.067-132.326-151.047h281.087l-323.717-219.649z" />
<glyph unicode="&#x70;" glyph-name="evacuation-dark" d="M1024 656.223c0 54.605-44.399 99.010-99.010 99.010-54.601 0-99.010-44.402-99.010-99.010 0-13.591 2.779-26.548 7.754-38.354-1.712 0.182-3.428 0.54-5.157 0.54-0.039 0-0.109 0-0.165 0l-198.003 18.858c-1.659 0.154-3.389 0.074-5.063-0.203l-105.104-18.601c-29.081-0.954-52.408-24.91-52.408-54.201 0-29.891 24.331-54.222 54.236-54.222 1.263 0 2.523 0.14 3.768 0.407l103.469 21.152 69.371-9.687c-98.452-88.429-100.129-90.366-101.052-91.432-7.88-9.097-12.525-20.44-13.23-32.211-5.596-12.581-38.245-66.228-69.199-115.054l-131.691-45.893c-1.337-0.442-2.607-1.067-3.814-1.821-15.967-10.020-25.517-27.169-25.517-45.918 0-29.87 24.327-54.222 54.236-54.222 3.491 0 12.718 0 160.66 50.703 3.666 1.238 6.852 3.589 9.136 6.722l82.216 112.714c28.744-24.72 62.621-53.927 76.616-66.007v-115.103c0-29.909 24.327-54.219 54.219-54.219 29.909 0 54.24 24.31 54.24 54.219v134.333c0 12.136-7.536 26.702-9.859 30.867-0.884 1.617-2.007 3.091-3.354 4.364l-96.688 94.088 37.427 37.631 5.024-46.283c0.754-6.943 5.273-12.893 11.732-15.468 117.057-46.967 119.545-46.967 124.113-46.967 25.545 0 46.356 20.815 46.356 46.374 0 15.991-8.136 30.649-22.394 39.578l-71.533 41.146-5.915 62.544c2.414 5.884 5.101 11.613 5.947 12.872 12.711 13.942 14.497 29.762 14.497 44.792 0 1.382-0.312 2.68-0.389 4.024 13.448-6.852 28.442-11.079 44.532-11.079 54.608 0.007 99.007 44.427 99.007 99.017zM458.932 387.333l-57.387-57.39c-7.378-7.382-7.378-19.279 0-26.667 3.673-3.666 8.508-5.522 13.332-5.522s9.648 1.856 13.335 5.522l89.58 89.576c1.73 1.758 3.129 3.835 4.073 6.14 1.902 4.621 1.902 9.795 0 14.416-0.961 2.302-2.34 4.4-4.073 6.129l-84.864 84.868c-7.375 7.375-19.293 7.375-26.667 0-7.375-7.378-7.375-19.293 0-26.671l52.671-52.671h-107.704v381.902c0 10.413-8.455 18.858-18.858 18.858h-313.509c-10.416 0-18.861-8.445-18.861-18.858v-717.932c0-10.406 8.445-18.854 18.861-18.854h313.527c10.406 0 18.858 8.448 18.858 18.854v298.301h107.686z" />
<glyph unicode="&#x71;" glyph-name="phone" d="M704 320c-64-64-64-128-128-128s-128 64-192 128-128 128-128 192 64 64 128 128-128 256-192 256-192-192-192-192c0-128 131.5-387.5 256-512s384-256 512-256c0 0 192 128 192 192s-192 256-256 192z" />
<glyph unicode="&#x72;" glyph-name="terrorist1" d="M832 384v256c0 176.729-143.271 320-320 320s-320-143.271-320-320v-256c0-73.173 27.152-140.567 65.939-194.475v-125.525h-25.86c-21.419 0-40.080-17.365-40.080-38.788v-50.424c0-21.423 18.661-38.788 40.080-38.788h562.424c21.423 0 37.496 17.365 37.496 38.788v50.424c0 21.423-16.078 38.788-37.496 38.788h-24.564v130.669c38.788 53.019 62.061 118.47 62.061 189.331zM576 576h193.939v-128h-193.939v128zM257.939 576h193.939v-128h-193.939v128z" />
<glyph unicode="&#x73;" glyph-name="bomb" d="M822.626 713.374c12.5 12.5 12.5 32.75 0 45.25s-32.75 12.5-45.25 0l-82.75-82.75-41.376 41.376c-24.968 25-65.532 25-90.5 0l-32-32c-2.522-2.522-4.608-5.296-6.62-8.102-43.478 17.122-90.648 26.852-140.13 26.852-211.734 0-384-172.266-384-384s172.266-384 384-384 384 172.266 384 384c0 49.482-9.728 96.654-26.852 140.13 2.804 2.014 5.58 4.098 8.102 6.62l32 32c25 24.984 25 65.516 0 90.5l-41.376 41.376 82.752 82.748zM384 512c-105.876 0-192-86.126-192-192 0-17.672-14.328-32-32-32s-32 14.328-32 32c0 141.156 114.844 256 256 256 17.672 0 32-14.328 32-32s-14.328-32-32-32zM918.040 662.040c-12.5 12.5-32.75 12.5-45.25 0s-12.5-32.75 0-45.25l32-32c6.25-6.25 14.438-9.376 22.626-9.376s16.376 3.126 22.626 9.376c12.5 12.5 12.5 32.75 0 45.25l-32.002 32zM680.79 808.79c6.25-6.25 14.438-9.376 22.626-9.376s16.376 3.126 22.626 9.376c12.5 12.5 12.5 32.75 0 45.25l-32 32c-12.5 12.5-32.75 12.5-45.25 0s-12.5-32.75 0-45.25l31.998-32zM800 832c17.688 0 32 14.328 32 32v64c0 17.672-14.312 32-32 32s-32-14.328-32-32v-64c0-17.672 14.312-32 32-32zM992 766.828h-64c-17.688 0-32-14.328-32-32s14.312-32 32-32h64c17.688 0 32 14.328 32 32s-14.312 32-32 32zM873.96 808.79c6.25-6.25 14.438-9.376 22.626-9.376s16.376 3.126 22.626 9.376l64 64c12.5 12.5 12.5 32.75 0 45.25s-32.75 12.5-45.25 0l-64-64c-12.502-12.5-12.502-32.75-0.002-45.25z" />
<glyph unicode="&#x74;" glyph-name="suspicious-object" horiz-adv-x="1463" d="M588.8 871.497c-26.624-5.851-53.394-23.406-70.363-46.080-6.29-8.631-14.921-26.917-18.286-38.912-2.779-10.094-3.218-16.53-3.803-49.152l-0.731-37.595-243.273-0.878-8.338-4.096c-10.679-5.266-19.602-15.214-22.382-25.161-1.902-6.437-2.194-45.787-1.902-312.32l0.439-305.006 4.389-7.899c5.266-9.509 13.458-16.823 22.382-19.749 5.998-2.048 56.174-2.341 484.498-2.341s478.501 0.293 484.498 2.341c8.923 2.926 17.115 10.24 22.382 19.749l4.389 7.899 0.439 305.006c0.293 266.533 0 305.883-1.902 312.32-2.779 9.947-11.703 19.895-22.382 25.161l-8.338 4.096-243.273 0.878-0.731 37.595c-0.731 43.301-1.755 48.421-12.727 71.387-15.36 31.89-48.128 57.051-82.505 63.342-13.605 2.487-270.921 2.048-282.478-0.585zM860.306 788.114c7.899-2.779 15.36-9.801 19.017-17.554 2.341-5.12 2.779-9.801 2.779-38.327v-32.622h-301.349v32.622c0 36.279 0.731 39.643 10.386 48.859 9.947 9.362 4.535 9.070 139.703 9.070 107.374 0.146 123.904-0.146 129.463-2.048zM779.703 587.703c16.677-2.926 36.425-9.216 50.761-16.384 45.934-22.528 72.119-67.438 70.363-120.832-0.439-15.067-1.17-19.31-4.389-27.063-11.703-28.087-26.478-43.301-76.507-78.409-11.264-7.899-22.382-16.091-24.576-18.286-7.607-7.022-11.557-15.36-12.873-28.233-2.779-24.43-14.043-35.694-39.643-39.205-32.475-4.681-57.49 9.947-62.318 36.425-1.755 9.801 0.146 28.087 4.096 38.766 4.535 11.703 16.384 27.648 27.941 37.157 5.705 4.681 19.31 14.043 30.281 20.919 14.336 8.923 23.406 15.799 32.622 24.722 15.799 15.506 17.993 21.065 17.115 42.13-0.439 12.288-1.17 15.214-4.827 21.943-5.12 9.362-10.386 14.043-21.211 19.163-7.607 3.511-9.362 3.803-30.72 3.803-25.6 0-30.866-1.463-42.13-11.557-8.338-7.607-11.557-16.384-13.166-35.694-1.755-19.017-4.827-26.624-14.629-35.694-28.233-26.039-81.774-17.554-93.184 14.921-6.583 18.432 1.317 57.929 16.969 85.87 7.753 13.605 29.842 36.718 42.569 44.032 20.041 11.849 47.104 20.626 72.119 23.552 16.53 2.048 58.807 0.878 75.337-2.048zM751.177 219.794c25.746-3.803 40.229-18.578 43.008-43.886 3.218-30.281-6.583-51.931-27.941-61.44-15.653-6.875-41.691-7.461-59.685-1.17-7.314 2.487-11.41 5.266-17.701 11.41-10.825 10.679-13.751 19.602-13.751 40.96 0 16.823 2.487 26.624 8.777 35.109 11.703 15.799 37.888 23.259 67.291 19.017z" />
<glyph unicode="&#x75;" glyph-name="schoolbus" d="M117.757 59.499h53.526v-74.871h133.815v74.871h417.437v-74.871h133.815v74.871h42.788v46.389h-781.381zM117.757 821.384v-683.283h781.381v683.283c0 0-78.505 78.505-388.89 89.21-310.45 10.673-392.491-89.21-392.491-89.21zM242.651 821.384c17.712 0 32.083-14.436 32.083-32.148s-14.371-32.116-32.083-32.116c-17.745 0-32.148 14.338-32.148 32.051s14.403 32.213 32.148 32.213zM178.387 698.242h299.745v-290.857h-79.445l-40.939 55.343h-58.749l-45.967-55.343h-74.644v290.857zM297.474 407.385h-19.399l19.042 21.832 2.238-17.68-1.882-4.152zM356.385 407.385l-2.725 4.152 1.752 21.767 19.302-25.92h-18.329zM238.174 203.987c-36.982 0-66.891 29.975-66.891 66.891 0 37.046 29.91 66.924 66.891 66.924s66.924-29.942 66.924-66.924c0-36.917-29.942-66.891-66.924-66.891zM660.153 173.753h-299.81v35.587h299.81v-35.587zM660.153 239.703h-299.81v35.684h299.81v-35.684zM660.153 307.567h-299.81v35.684h299.81v-35.684zM856.35 270.878c0-36.917-29.975-66.891-66.924-66.891-36.917 0-66.891 29.975-66.891 66.891 0 37.046 29.975 66.924 66.891 66.924 36.982 0 66.924-29.942 66.924-66.924zM770.676 828.391c17.777 0 32.148-14.371 32.148-32.083s-14.371-32.051-32.148-32.051c-17.712 0-32.083 14.338-32.083 32.051s14.371 32.083 32.083 32.083zM528.090 698.242h299.68v-290.857h-59.43l-12.1 88.594h-44.54l-26.406-30.623-25.563 30.623-55.927-10.446-2.401-78.148h-73.314v290.857zM0 651.82h96.314v-128.462h-96.314v128.462zM927.718 658.957h96.314v-128.495h-96.314v128.495zM755.884 575.749c0-38.305-31.052-69.357-69.357-69.357s-69.357 31.052-69.357 69.357c0 38.305 31.052 69.357 69.357 69.357s69.357-31.052 69.357-69.357zM264.386 470.124c-2.563 23.162 8.499 37.176 12.781 41.588 3.958-23.941 24.622-42.367 49.698-42.367 23.746 0 43.567 16.512 48.984 38.636 4.055-7.267 10.965-22.059 9.31-37.922 42.107 0.357 21.378 48.498-8.175 53.753-0.195 2.433-0.389 4.898-0.941 7.299-1.752 15.214-15.377 46.162-54.369 45.221-33.738-0.746-41.069-26.082-42.853-41.491-1.2-3.795-1.946-7.753-2.206-11.873-43.794-7.623-38.96-52.099-12.23-52.845zM303.184 534.193c0 0 4.315-1.492 4.315-15.539 7.429-2.595 20.34 21.865 20.34 21.865v-19.269c8.272-2.206 34.159 0.681 34.159 0.681l0.973-0.779c0.032-0.454 0.13-0.779 0.13-1.233 0-19.951-16.252-36.235-36.235-36.235-19.691 0-35.716 15.831-36.138 35.457 7.169 2.595 12.457 15.052 12.457 15.052z" />
<glyph unicode="&#x76;" glyph-name="accident" d="M404.951 192.569v-29.070l79.196 16.295zM501.928 221.624v16.339l-64.378-5.953zM404.951 119.121v-8.963c0-26.78 21.709-48.489 48.489-48.489s48.489 21.709 48.489 48.489v28.238c-100.747-20.727-93.117-19.428-96.978-19.276zM596.15 876.256c0-46.251-37.493-83.744-83.744-83.744s-83.744 37.493-83.744 83.744c0 46.251 37.493 83.744 83.744 83.744s83.744-37.493 83.744-83.744zM489.743 469.564c8.881-26.010 38.392-31.632 51.298-25.18l-26.118 76.478c-20.825-7.111-32.477-29.928-25.18-51.298zM717.388 534.615l-0.368 73.347-0.316 62.712c-0.263 52.463-43.161 95.145-95.624 95.145h-217.354c-52.461 0-95.359-42.682-95.621-95.145l-1.492-296.857c-0.108-21.568 16.716-39.224 37.993-40.486v-375.261c0-12.184 9.881-22.065 22.065-22.065s22.065 9.881 22.065 22.065c0 28.152 0.181 712.196 0.181 712.196 0 0.002 0 0.002 0 0.004 0.245 4.576 4.093 8.122 8.674 7.992s8.217-3.886 8.208-8.468l-0.847-396.485c102.15 9.446 94.77 8.85 96.976 8.791v85.701c0 5.955 4.828 10.781 10.781 10.781 5.827 0 10.549-4.739 10.527-10.567-0.238-62.756-0.371-383.525-0.371-383.525 0-26.78 21.709-48.489 48.489-48.489s48.489 21.709 48.489 48.489l0.018 440.175-64.563-22.049c-44.268-15.112-92.254 8.579-107.313 52.681-15.063 44.112 8.568 92.256 52.679 107.32 10.401 3.552 118.959 40.625 135.538 46.287l0.183-36.806 29.405-85.116 24.251 8.283c0.009 0.002 0.018 0.007 0.026 0.011 15.624 5.351 27.32 19.988 27.32 39.339z" />
<glyph unicode="&#x77;" glyph-name="helmet-gear" d="M954.889 566.508h-39.377c-10.605 184.613-145.66 336.427-322.357 372.584-5.306 12.295-17.532 20.908-31.775 20.908h-98.763c-14.243 0-26.465-8.613-31.775-20.908-176.69-36.157-311.744-187.971-322.35-372.584h-39.381c-19.108 0-34.602-15.491-34.602-34.602v-105.144c0-19.108 15.491-34.602 34.602-34.602l56.106-0.007c0-23.211 2.093-46.328 6.227-69.025l-53.096-30.658c-7.947-4.589-13.746-12.143-16.122-21.011-2.376-8.864-1.131-18.308 3.458-26.255l93.68-162.254c9.557-16.546 30.713-22.225 47.266-12.664l53.169 30.696c35.344-30.075 75.952-53.558 119.487-69.087v-61.295c0-19.108 15.491-34.602 34.602-34.602h187.358c19.108 0 34.602 15.491 34.602 34.602v61.295c43.536 15.529 84.144 39.012 119.491 69.087l53.169-30.696c16.556-9.557 37.712-3.882 47.266 12.664l93.677 162.254c9.557 16.549 3.886 37.709-12.664 47.266l-53.096 30.658c4.141 22.697 6.23 45.815 6.23 69.025v0.007h64.981c19.108 0 34.602 15.491 34.602 34.602v105.144c-0.014 19.108-15.508 34.602-34.616 34.602zM526.781 890.799v-227.083h-29.558v227.083h29.558zM279.876 784.379v-155.265c0-19.108 15.491-34.602 34.602-34.602s34.602 15.491 34.602 34.602v206.576c24.576 13.736 51.069 24.414 78.941 31.637v-238.213c0-19.108 15.491-34.602 34.602-34.602h98.763c19.108 0 34.602 15.491 34.602 34.602v238.213c27.872-7.223 54.365-17.901 78.945-31.637v-206.576c0-19.108 15.491-34.602 34.602-34.602 19.108 0 34.602 15.491 34.602 34.602v155.262c58.103-55.903 96.049-132.544 101.979-217.867h-668.22c5.93 85.326 43.88 161.964 101.979 217.871zM820.707 392.156c0-26.334-3.275-52.507-9.733-77.79-3.841-15.026 2.793-30.775 16.222-38.529l45.015-25.99-59.075-102.324-45.108 26.041c-13.443 7.758-30.406 5.623-41.498-5.23-37.657-36.84-84.196-63.747-134.592-77.81-14.957-4.172-25.3-17.801-25.3-33.327v-51.99h-118.156v51.983c0 15.525-10.343 29.155-25.3 33.327-50.397 14.064-96.935 40.97-134.589 77.807-11.092 10.861-28.062 12.988-41.498 5.234l-45.108-26.041-59.075 102.328 45.018 25.99c13.433 7.754 20.063 23.5 16.222 38.529-6.461 25.286-9.733 51.455-9.733 77.79v0.007l106.399-0.007c0-113.998 92.743-206.745 206.745-206.745s206.745 92.743 206.745 206.745v0.007l106.399-0.003zM549.040 392.156c0-22.873-18.608-41.481-41.481-41.481s-41.481 18.608-41.481 41.481v0.007l82.961-0.007zM507.559 281.474c61.030 0 110.682 49.652 110.682 110.682v0.007l26.862-0.007c0-75.842-61.702-137.54-137.544-137.54s-137.54 61.699-137.54 137.54v0.007l26.858-0.007c0-61.030 49.652-110.682 110.682-110.682zM920.29 461.364h-816.58v35.943h816.58v-35.943z" />
<glyph unicode="&#x78;" glyph-name="extra-muros" d="M417.961 92.738c-1.308 3.481-1.759 6.441-1.315 8.836 0.441 2.379-1.080 4.351-4.568 5.869s-5.229 2.724-5.229 3.584c0 0.869-2.5 1.526-7.512 1.956-5.009 0.437-7.509 0.659-7.509 0.659h-203.751c-28.734 0-53.335 10.222-73.8 30.699-20.461 20.463-30.69 45.057-30.69 73.786v459.759c0 28.734 10.227 53.326 30.69 73.789 20.465 20.465 45.066 30.701 73.8 30.701h208.977c5.661 0 10.113 1.404 13.386 4.241 3.26 2.829 5.433 7.077 6.526 12.736 1.089 5.659 1.745 10.769 1.965 15.341 0.215 4.568 0.11 10.341-0.329 17.306-0.432 6.963-0.65 11.316-0.65 13.066 0 5.659-2.070 10.547-6.203 14.692-4.138 4.126-9.033 6.197-14.692 6.197h-208.979c-51.805 0-96.107-18.395-132.899-55.183-36.783-36.788-55.178-81.083-55.178-132.892v-459.749c0-51.805 18.395-96.111 55.178-132.885 36.792-36.806 81.094-55.201 132.899-55.201h208.986c5.661 0 10.115 1.423 13.386 4.241 3.26 2.834 5.433 7.077 6.526 12.743 1.089 5.652 1.745 10.787 1.965 15.341 0.215 4.572 0.11 10.334-0.329 17.299-0.437 6.972-0.65 11.323-0.65 13.070zM1011.591 477.388l-355.262 355.273c-8.267 8.262-18.066 12.407-29.386 12.407s-21.119-4.145-29.395-12.407c-8.273-8.273-12.407-18.079-12.407-29.393v-188.082h-292.569c-11.327 0-21.119-4.145-29.393-12.407-8.273-8.273-12.407-18.073-12.407-29.393v-250.779c0-11.318 4.133-21.117 12.407-29.386 8.283-8.257 18.073-12.414 29.393-12.414h292.572v-188.080c0-11.311 4.133-21.119 12.407-29.386 8.273-8.273 18.073-12.416 29.395-12.416 11.318 0 21.117 4.142 29.386 12.416l355.26 355.257c8.273 8.28 12.409 18.066 12.409 29.388 0 11.318-4.136 21.126-12.409 29.4z" />
<glyph unicode="&#x79;" glyph-name="burn-out" d="M511.679-64c-175.869 0-318.95 143.086-318.95 318.955v4.628h-6.977c-54.237 0-98.362 44.124-98.362 98.362v45.034c0 54.237 44.124 98.362 98.362 98.362h6.977v144.971c0 55.588 25.736 108.433 69.218 142.875-1.463 7.3-2.222 14.802-2.222 22.425 0 20.25 10.784 41.058 28.849 55.644 0.183 0.141 0.366 0.286 0.553 0.417l10.943 7.811c0.389 0.281 0.792 0.53 1.21 0.76 1.707 0.928 3.634 2.086 5.847 3.418 10.305 6.18 25.881 15.529 51.626 23.387 35.675 11.679 73.128 18.487 114.5 20.808 53.605 3.019 107.861-0.455 156.875-10.015 31.934-5.458 58.509-7.023 78.735-4.646 29.543 3.493 41.184 17.577 44.054 21.807 3.404 5.026 4.117 14.319 4.098 17.174-0.033 5.289 3.479 9.968 8.571 11.389 5.101 1.416 10.507-0.722 13.217-5.265 0.638-1.069 15.5-26.5 7.844-57.426-2.035-8.214-4.581-15.116-7.225-20.822 6.878 0.924 14.113 2.297 19.931 4.328 17.080 5.95 23.11 8.636 23.166 8.664 4.304 1.927 9.358 1.097 12.8-2.11 3.451-3.216 4.651-8.177 3.029-12.603-1.177-3.212-12.087-31.746-32.853-45.278-0.263-0.169-0.525-0.338-0.792-0.506 4.867-5.804 9.077-11.759 12.579-17.803 5.378-8.308 8.805-15.43 13.044-24.554v0c36.121-77.685 6.011-159.276 0.3-173.318v-111.513h7.614c54.237 0 98.362-44.124 98.362-98.362v-45.034c0-54.237-44.124-98.362-98.362-98.362h-7.614v-4.628c0.005-175.887-143.072-318.973-318.945-318.973zM448.702-33.801c20.297-4.421 41.372-6.752 62.977-6.752 16.916 0 33.505 1.43 49.657 4.173-0.070 0.511-0.103 1.036-0.103 1.566v19.097c0 6.475 5.247 11.721 11.721 11.721s11.721-5.247 11.721-11.721v-15.716c26.73 6.817 52.015 17.291 75.289 30.846-6.559-0.366-12.354 5.017-12.354 11.703v19.097c0 6.475 5.247 11.721 11.721 11.721s11.721-5.247 11.721-11.721v-19.097c0-2.171-0.591-4.206-1.622-5.95 40.645 25.759 74.609 61.167 98.638 102.966-0.722 1.524-1.125 3.226-1.125 5.021v19.097c0 6.475 5.247 11.721 11.721 11.721 2.265 0 4.384-0.647 6.175-1.758 14.399 34.756 22.35 72.837 22.35 112.742v99.351h-20.766c-3.132 0-6.137 1.257-8.332 3.479-2.204 2.227-3.423 5.242-3.39 8.374 0.019 1.36 1.421 136.353-9.030 178.147-9.438 37.771-36.397 52.845-37.537 53.469-2.794 1.524-4.881 4.135-5.725 7.202-0.844 3.071-0.431 6.367 1.191 9.101 0.155 0.263 16.091 27.559 16.794 53.726 0.103 3.882-15.144 13.081-35.807 19.415-26.823 6.086-47.889 5.725-48.358 5.72l-244.106 0.005c-34.93 0-65.167 5.95-89.866 17.681-4.501 2.138-8.815 4.581-12.922 7.295-10.943-12.678-26.415-34.175-26.373-50.393 0.066-25.9 16.518-53 16.687-53.267 1.693-2.762 2.176-6.105 1.327-9.227-0.853-3.123-2.954-5.762-5.814-7.281-1.083-0.591-28.033-15.665-37.476-53.436-10.451-41.808-9.044-176.788-9.026-178.147 0.033-3.132-1.182-6.147-3.385-8.374s-5.204-3.479-8.336-3.479h-20.766v-99.351c0-37.452 7.005-73.311 19.772-106.314 2.138 2.855 5.551 4.707 9.391 4.707 6.475 0 11.721-5.247 11.721-11.721v-19.097c0-3.807-1.81-7.183-4.618-9.326 13.709-24.971 30.916-47.758 50.97-67.694 0.534 5.973 5.561 10.657 11.675 10.657 6.475 0 11.721-5.247 11.721-11.721v-19.097c0-0.258-0.009-0.506-0.023-0.755 28.882-23.227 62.217-41.152 98.484-52.264v7.258c0 6.475 5.247 11.721 11.721 11.721s11.721-5.247 11.721-11.721v-13.4zM831.271 283.030h6.972c41.316 0 74.919 33.608 74.919 74.919v45.034c0 41.316-33.608 74.919-74.919 74.919h-6.972v-194.871zM185.752 477.906c-41.311 0-74.919-33.608-74.919-74.919v-45.034c0-41.316 33.608-74.919 74.919-74.919h6.977v194.876h-6.977zM798.217 377.753h8.969v235.662c-10.245 22.172-26.008 38.16-43.557 49.704-1.449-20.419-9.34-39.951-14.741-51.209 11.843-9.251 31.245-28.774 39.529-61.908 9.368-37.495 9.912-137.563 9.799-172.249zM216.172 377.753h8.969c-0.108 34.686 0.431 134.754 9.804 172.244 8.257 33.026 27.55 52.531 39.403 61.819-5.964 12.082-14.769 33.626-14.825 55.653-0.061 24.878 19.776 51.588 31.775 65.457-0.225 0.234-0.445 0.469-0.67 0.699-8.711 9.058-15.876 19.64-21.117 31.31-33.65-29.965-53.342-73.245-53.342-118.626v-268.557zM702.612 712.119c35.886-6.977 83.954-24.343 113.689-67.408 1.66 6.301 3.31 13.611 4.675 21.694-13.756 13.4-63.441 57.252-137.366 71.309-51.673 9.827-112.728 6.015-171.752 2.34-43.89-2.733-89.275-5.565-129.48-2.513-38.981 2.963-66.006 13.137-84.488 24.512 2.485-3.793 5.256-7.375 8.285-10.727 2.297-2.504 4.74-4.862 7.319-7.070 1.050-0.549 2.040-1.266 2.916-2.147 0.258-0.263 0.502-0.525 0.731-0.806 4.482-3.423 9.316-6.405 14.455-8.88 21.624-10.413 48.667-15.693 80.386-15.693h243.67c2.452 0.075 18.534 0.23 40.298-3.409 0.966-0.005 1.936-0.075 2.916-0.295 1.078-0.253 2.344-0.553 3.746-0.905zM605.118 767.407c28.718 0 56.708-1.693 82.871-6.667 64.965-12.354 111.968-45.034 136.044-65.406 0.38 9.41 0.164 19.312-0.928 29.458-5.397 4.548-52.048 43.271-93.439 60.323-42.999 17.709-111.87 12.251-112.568 12.209-3.957-0.324-7.727 1.332-10.165 4.412-2.438 3.085-3.165 7.178-1.941 10.91l2.888 8.829-67.947-21.314c-4.159-1.303-8.688-0.202-11.773 2.874-3.085 3.066-4.215 7.596-2.94 11.754l7.188 23.373c-36.224-23.71-100.111-59.029-152.74-53.319-51.195 5.504-78.52 29.158-91.61 45.606-3.151-6.17-4.89-12.65-4.89-18.843 0-1.102 0.019-2.204 0.061-3.296 3.802-7.361 25.45-41.667 100.926-47.397 38.587-2.94 81.169-0.277 126.245 2.532 31.479 1.969 63.526 3.962 94.719 3.962zM642.636 821.635c26.129 0 65.767-2.405 95.956-14.839 27.897-11.492 57.023-31.273 76.668-45.943-1.754 5.172-3.802 10.324-6.18 15.449 0 0 0 0-0.005 0-3.999 8.599-6.963 14.769-11.614 21.919-0.113 0.178-0.23 0.361-0.333 0.544-4.801 8.346-11.37 16.593-19.514 24.512-2.785 2.701-4.046 6.606-3.38 10.432 0.675 3.817 3.188 7.061 6.723 8.66 4.398 1.988 8.35 4.117 11.75 6.33 3.057 1.993 5.926 4.712 8.543 7.769-19.181-5.176-43.58-5.706-44.71-5.729-0.080 0-0.15 0-0.225 0-4.853 0-9.218 2.996-10.953 7.539-1.763 4.618-0.436 9.851 3.31 13.072v0c-0.005-0.005 9.776 9.157 15.219 31.16 0.567 2.283 0.952 4.539 1.191 6.742-9.063-8.927-25.595-20.034-53.464-23.33-22.454-2.654-51.284-1.017-85.703 4.867-47.402 9.241-99.637 12.556-151.343 9.668-39.365-2.213-74.914-8.664-108.667-19.734-0.169-0.056-0.342-0.103-0.516-0.155-22.787-6.958-36.876-15.411-46.201-21.005-2.255-1.35-4.257-2.551-6.053-3.545l-9.766-6.972c8.125-11.9 30.157-35.652 78.806-40.884 67.197-7.211 163.336 67.9 164.297 68.669 4.037 3.174 9.663 3.348 13.883 0.464 4.229-2.902 6.086-8.214 4.581-13.119l-10.756-34.963 68.425 21.464c4.187 1.313 8.758 0.173 11.843-2.949s4.168-7.713 2.804-11.881l-4.689-14.324c3.048 0.066 6.428 0.113 10.071 0.113zM514.342-19.36c-6.475 0-11.721 5.247-11.721 11.721v19.097c0 6.475 5.247 11.721 11.721 11.721s11.721-5.247 11.721-11.721v-19.097c0-6.475-5.247-11.721-11.721-11.721zM397.493 4.083c-6.475 0-11.721 5.247-11.721 11.721v19.097c0 6.475 5.247 11.721 11.721 11.721s11.721-5.247 11.721-11.721v-19.097c0-6.475-5.251-11.721-11.721-11.721zM476.833 46.28c-6.475 0-11.721 5.247-11.721 11.721v19.097c0 6.475 5.247 11.721 11.721 11.721s11.721-5.247 11.721-11.721v-19.097c0-6.475-5.247-11.721-11.721-11.721zM568.261 55.831c-6.475 0-11.721 5.247-11.721 11.721v19.097c0 6.475 5.247 11.721 11.721 11.721s11.721-5.247 11.721-11.721v-19.097c0-6.475-5.247-11.721-11.721-11.721zM698.13 63.581c-6.475 0-11.721 5.247-11.721 11.721v19.097c0 6.475 5.247 11.721 11.721 11.721s11.721-5.247 11.721-11.721v-19.097c0-6.475-5.251-11.721-11.721-11.721zM632.729 89.026c-6.475 0-11.721 5.247-11.721 11.721v19.097c0 6.475 5.247 11.721 11.721 11.721s11.721-5.247 11.721-11.721v-19.097c0-6.475-5.247-11.721-11.721-11.721zM325.875 91.712c-6.475 0-11.721 5.247-11.721 11.721v19.097c0 6.475 5.247 11.721 11.721 11.721s11.721-5.247 11.721-11.721v-19.097c0-6.475-5.251-11.721-11.721-11.721zM405.332 98.403c-6.475 0-11.721 5.247-11.721 11.721v19.097c0 6.475 5.247 11.721 11.721 11.721s11.721-5.247 11.721-11.721v-19.097c0-6.475-5.247-11.721-11.721-11.721zM511.679 101.432c-6.475 0-11.721 5.247-11.721 11.721v19.097c0 6.475 5.247 11.721 11.721 11.721s11.721-5.247 11.721-11.721v-19.097c0-6.47-5.247-11.721-11.721-11.721zM581.759 120.355c-4.257 0-8.36 2.33-10.437 6.372-0.788 1.491-18.103 33.486-61.669 33.486-44.185 0-61.472-33.097-61.641-33.43-2.93-5.781-9.982-8.083-15.754-5.157s-8.083 9.977-5.157 15.749c0.961 1.889 24.127 46.276 82.552 46.276s81.591-44.387 82.547-46.276c2.93-5.772 0.624-12.823-5.157-15.749-1.688-0.858-3.502-1.271-5.284-1.271zM738.808 162.004c-6.475 0-11.721 5.247-11.721 11.721v19.097c0 6.475 5.247 11.721 11.721 11.721s11.721-5.247 11.721-11.721v-19.097c0-6.47-5.247-11.721-11.721-11.721zM672.582 166.523c-6.475 0-11.721 5.247-11.721 11.721v19.097c0 6.475 5.247 11.721 11.721 11.721s11.721-5.247 11.721-11.721v-19.097c0-6.475-5.247-11.721-11.721-11.721zM351.414 175.901c-6.475 0-11.721 5.247-11.721 11.721v19.097c0 6.475 5.247 11.721 11.721 11.721s11.721-5.247 11.721-11.721v-19.097c0-6.475-5.247-11.721-11.721-11.721zM417.054 185.447c-6.475 0-11.721 5.247-11.721 11.721v19.097c0 6.475 5.247 11.721 11.721 11.721s11.721-5.247 11.721-11.721v-19.097c0-6.47-5.247-11.721-11.721-11.721zM280.499 185.447c-6.475 0-11.721 5.247-11.721 11.721v19.097c0 6.475 5.247 11.721 11.721 11.721s11.721-5.247 11.721-11.721v-19.097c0-6.47-5.247-11.721-11.721-11.721zM592.876 190.135c-6.475 0-11.721 5.247-11.721 11.721v19.097c0 6.475 5.247 11.721 11.721 11.721s11.721-5.247 11.721-11.721v-19.097c0-6.47-5.247-11.721-11.721-11.721zM499.104 212.012c-6.475 0-11.721 5.247-11.721 11.721v19.097c0 6.475 5.247 11.721 11.721 11.721s11.721-5.247 11.721-11.721v-19.097c0-6.47-5.247-11.721-11.721-11.721zM708.918 231.113c-6.475 0-11.721 5.247-11.721 11.721v19.097c0 6.475 5.247 11.721 11.721 11.721s11.721-5.247 11.721-11.721v-19.097c0-6.475-5.247-11.721-11.721-11.721zM315.077 240.49c-6.475 0-11.721 5.247-11.721 11.721v19.097c0 6.475 5.247 11.721 11.721 11.721s11.721-5.247 11.721-11.721v-19.097c0-6.475-5.247-11.721-11.721-11.721zM786.28 250.21c-6.475 0-11.721 5.247-11.721 11.721v19.097c0 6.475 5.247 11.721 11.721 11.721s11.721-5.247 11.721-11.721v-19.097c0-6.475-5.247-11.721-11.721-11.721zM237.716 259.587c-6.475 0-11.721 5.247-11.721 11.721v19.097c0 6.475 5.247 11.721 11.721 11.721s11.721-5.247 11.721-11.721v-19.097c0-6.475-5.247-11.721-11.721-11.721zM632.729 317.168c-44.312 0-80.648 40.341-83.086 90.987-0.169 2.176-0.258 4.374-0.258 6.592 0 15.186 4.079 29.43 11.206 41.71 0.173 0.324 0.361 0.642 0.558 0.947 14.563 24.348 41.199 40.687 71.581 40.687 45.957 0 83.34-37.387 83.34-83.34 0-2.222-0.089-4.417-0.258-6.592-2.429-50.651-38.765-90.991-83.082-90.991zM573.043 409.683c2.583-30.663 28.366-54.824 59.686-54.824s57.107 24.16 59.686 54.824c0.056 1.289 0.084 2.593 0.084 3.896 0 0.586 0.042 1.163 0.122 1.721-0.075 8.533-1.946 16.644-5.247 23.973h-109.295c-3.301-7.328-5.176-15.439-5.247-23.973 0.084-0.558 0.122-1.135 0.122-1.721 0.005-1.308 0.033-2.607 0.089-3.896zM596.894 462.715h71.674c-10.001 7.492-22.407 11.932-35.84 11.932s-25.834-4.44-35.835-11.932zM397.493 317.168c-44.335 0-80.681 40.378-83.086 91.066-0.169 2.147-0.253 4.323-0.253 6.517 0 15.168 4.074 29.402 11.187 41.672 0.183 0.347 0.384 0.685 0.595 1.017 14.567 24.329 41.194 40.655 71.557 40.655 45.953 0 83.34-37.387 83.34-83.34 0-2.194-0.084-4.37-0.253-6.517-2.405-50.693-38.751-91.071-83.086-91.071zM337.803 409.739c2.551-30.691 28.347-54.885 59.686-54.885s57.135 24.193 59.686 54.885c0.056 1.271 0.084 2.551 0.084 3.835 0 0.581 0.042 1.149 0.122 1.707-0.075 8.533-1.946 16.654-5.251 23.987h-109.291c-3.305-7.333-5.176-15.454-5.251-23.987 0.084-0.558 0.122-1.125 0.122-1.707 0.009-1.285 0.038-2.565 0.094-3.835zM361.654 462.715h71.674c-10.001 7.492-22.411 11.932-35.84 11.932s-25.834-4.44-35.835-11.932zM632.729 401.857c-6.475 0-11.721 5.247-11.721 11.721v1.172c0 6.475 5.247 11.721 11.721 11.721s11.721-5.247 11.721-11.721v-1.172c0-6.475-5.247-11.721-11.721-11.721zM397.493 401.857c-6.475 0-11.721 5.247-11.721 11.721v1.172c0 6.475 5.247 11.721 11.721 11.721s11.721-5.247 11.721-11.721v-1.172c0-6.475-5.251-11.721-11.721-11.721zM359.197 547.039c-3.465 0-6.892 1.528-9.204 4.454-4.013 5.082-3.146 12.453 1.936 16.466l76.602 60.487c5.082 4.009 12.453 3.141 16.462-1.932 4.013-5.082 3.146-12.453-1.936-16.466l-76.602-60.487c-2.152-1.702-4.712-2.522-7.258-2.522zM668.742 551.911c-2.077 0-4.182 0.549-6.086 1.707l-83.372 50.745c-5.533 3.366-7.286 10.577-3.92 16.11s10.582 7.277 16.11 3.92l83.372-50.745c5.533-3.366 7.286-10.577 3.92-16.11-2.208-3.629-6.067-5.626-10.024-5.626z" />
<glyph unicode="&#x7a;" glyph-name="sexual-assault" d="M301.714 448c-110.903 0-201.143-90.24-201.143-201.143s90.24-201.143 201.143-201.143 201.143 90.24 201.143 201.143-90.24 201.143-201.143 201.143zM464.165 271.909l-42.423-35.529-16.146 64.585c-2.139 8.613-10.094 14.135-18.999 13.824l-66.505-4.571 24.869 61.806c2.999 7.442 0.786 15.982-5.467 21.029l-21.705 17.554c74.917-7.296 135.058-65.042 146.377-138.697zM301.714 82.286c-90.734 0-164.571 73.819-164.571 164.571 0 77.824 54.363 143.049 127.067 160.091l41.801-33.829-30.702-76.343c-2.341-5.833-1.518-12.489 2.176-17.573 3.712-5.083 9.728-7.753 16.037-7.497l80.329 5.541 19.529-78.098c1.518-6.126 6.089-11.026 12.087-12.965 1.847-0.603 3.767-0.896 5.65-0.896 4.224 0 8.393 1.463 11.739 4.261l41.746 34.981c-10.953-80.183-79.726-142.245-162.889-142.245zM923.429 539.429c0 110.903-90.24 201.143-201.143 201.143s-201.143-90.24-201.143-201.143 90.24-201.143 201.143-201.143 201.143 90.24 201.143 201.143zM557.714 539.429c0 10.441 1.079 20.626 2.944 30.537l2.871-11.502c2.158-8.613 10.295-14.171 18.999-13.824l66.505 4.571-24.869-61.806c-3.31-8.21-0.256-17.609 7.241-22.327l56.448-35.365-49.957-31.305c-47.927 28.782-80.183 81.134-80.183 141.019zM722.286 374.857c-15.067 0-29.605 2.213-43.465 6.016l53.193 33.335c5.321 3.365 8.558 9.198 8.558 15.506s-3.237 12.142-8.576 15.506l-68.187 42.752 30.043 74.679c2.341 5.833 1.518 12.489-2.176 17.573s-9.673 7.79-16.037 7.497l-80.329-5.541-11.465 45.879c29.294 45.605 80.347 75.941 138.441 75.941 90.734 0 164.571-73.819 164.571-164.571s-73.838-164.571-164.571-164.571zM996.571 539.429c0 75.703-30.153 146.158-84.937 198.455-54.747 52.224-126.702 78.848-202.478 75.538-110.007-5.138-206.062-79.141-243.913-179.072l-42.405 35.529c-4.827 4.041-11.41 5.339-17.39 3.383-5.998-1.938-10.569-6.839-12.087-12.965l-19.529-78.098-17.262 1.17v167.918l48.859-48.859c10.77-10.789 25.106-16.713 40.357-16.713 31.47 0 57.070 25.6 57.070 57.070 0 15.031-6.089 29.733-16.713 40.357l-171.502 171.502c-7.15 7.15-18.706 7.15-25.856 0l-171.502-171.502c-10.624-10.624-16.713-25.326-16.713-40.357 0-31.47 25.6-57.070 57.070-57.070 15.25 0 29.586 5.925 40.357 16.713l48.859 48.859v-235.959c-126.153-25.728-219.429-138.441-219.429-268.471 0-151.241 123.045-274.286 274.286-274.286 146.048 0 265.472 114.834 273.499 258.926l27.209-18.139c3.072-2.030 6.601-3.072 10.149-3.072 2.962 0 5.925 0.713 8.631 2.158 5.943 3.182 9.655 9.381 9.655 16.128v52.809c11.849-4.206 23.973-7.881 36.571-10.441v-133.797h-36.571c-30.245 0-54.857-24.613-54.857-54.857s24.613-54.857 54.857-54.857h36.571v-36.571c0-30.245 24.613-54.857 54.857-54.857s54.857 24.613 54.857 54.857v36.571h36.571c30.245 0 54.857 24.613 54.857 54.857s-24.613 54.857-54.857 54.857h-36.571v133.815c126.153 25.728 219.429 138.441 219.429 268.471zM386.597 544.64c0.421-0.018 0.841-0.037 1.262-0.037 8.338 0 15.689 5.669 17.737 13.861l16.146 64.585 32.421-27.154c-2.432-11.355-4.407-22.857-5.321-34.633-2.377-30.702 0.695-60.599 7.973-89.015-29.678 20.535-63.506 35.584-100.242 43.063v31.378l30.025-2.048zM301.714 9.143c-131.072 0-237.714 106.642-237.714 237.714 0 117.303 87.589 218.331 203.739 234.99 8.997 1.298 15.689 9.015 15.689 18.103v295.479c0 7.387-4.462 14.080-11.282 16.896-2.267 0.951-4.645 1.39-7.003 1.39-4.754 0-9.435-1.865-12.928-5.358l-80.073-80.073c-3.877-3.877-9.015-5.998-14.501-5.998-11.301 0-20.498 9.198-20.498 20.498 0 5.394 2.194 10.679 5.998 14.501l158.574 158.574 158.574-158.574c3.803-3.822 5.998-9.106 5.998-14.501 0-11.301-9.198-20.498-20.498-20.498-5.486 0-10.624 2.121-14.501 5.998l-80.073 80.073c-5.248 5.248-13.093 6.839-19.931 3.968-6.821-2.816-11.282-9.509-11.282-16.896v-295.479c0-9.088 6.693-16.805 15.689-18.103 116.151-16.658 203.739-117.687 203.739-234.99 0-131.072-106.642-237.714-237.714-237.714zM594.286 262.729l-20.041 13.367c-1.39 12.8-3.657 25.362-6.784 37.632 8.613-5.943 17.499-11.52 26.825-16.475v-34.523zM758.857 100.571h54.857c10.075 0 18.286-8.192 18.286-18.286s-8.21-18.286-18.286-18.286h-54.857c-10.094 0-18.286-8.174-18.286-18.286v-54.857c0-10.094-8.21-18.286-18.286-18.286s-18.286 8.192-18.286 18.286v54.857c0 10.112-8.192 18.286-18.286 18.286h-54.857c-10.075 0-18.286 8.192-18.286 18.286s8.21 18.286 18.286 18.286h54.857c10.094 0 18.286 8.174 18.286 18.286v167.479c0 9.088-6.693 16.805-15.689 18.103-123.52 17.701-212.681 129.262-203.008 254.007 9.088 116.992 108.16 212.955 225.536 218.423 65.847 3.090 128.091-20.187 175.525-65.463 47.488-45.294 73.637-106.368 73.637-171.977 0-117.303-87.589-218.331-203.739-234.99-8.997-1.298-15.689-9.015-15.689-18.103v-167.479c0-10.112 8.192-18.286 18.286-18.286z" />
<glyph unicode="&#x7b;" glyph-name="sms" d="M537.945 390.516v-290.183h-403.607v722.732h319.553c10.886 12.62 23.309 24.51 37.234 35.5 38.317 30.239 84.985 51.263 135.727 61.774-2.382 13.527-14.157 23.811-28.365 23.811h-403.125v1.437c0 7.959-6.454 14.413-14.419 14.413h-58.618c-7.959 0-14.413-6.454-14.413-14.413v-1.44h-34.12c-15.918 0-28.823-12.908-28.823-28.829v-950.487c0-15.921 12.908-28.829 28.823-28.829h524.695c15.924 0 28.829 12.908 28.829 28.829v446.653c-34.795-12.227-65.254-18.208-89.372-20.968zM242.688 902.583h186.91v-32.674h-186.91v32.674zM336.143-10.661c-17.515 0-31.711 14.196-31.711 31.711s14.196 31.711 31.711 31.711c17.515 0 31.711-14.196 31.711-31.711s-14.199-31.711-31.711-31.711zM711.008 900.138c-147.791 0-268.025-96.046-268.025-214.103 0-66.417 38.908-129.333 104.522-169.719-2.596-11.564-12.286-37.793-48.384-68.258-3.706-3.129-5.217-8.149-3.852-12.807 1.365-4.652 5.351-8.063 10.16-8.694 0.669-0.086 6.841-0.857 17.75-0.857 31.003 0 94.154 6.109 171.236 46.647 5.571-0.271 11.135-0.407 16.593-0.407 147.791 0 268.025 96.043 268.025 214.094 0 118.058-120.238 214.103-268.025 214.103zM590.104 621.138c-17.265 0-35.265 7.409-46.989 19.341l-7.617 7.745 17.937 17.937 7.745-8.182c6.594-6.969 18.217-11.653 28.924-11.653 11.35 0 24.606 3.569 24.606 13.634 0.086 9.821-5.705 13.048-25.652 19.088-18.089 5.481-42.858 12.982-42.858 42.213 0 21.75 19.088 36.365 47.513 36.365 12.81 0 26.768-3.875 36.428-10.115l9.068-5.853-13.244-21.203-9.342 6.020c-5.529 3.563-14.737 5.957-22.91 5.957-11.112 0-22.324-3.453-22.324-11.171 0-9.074 5.99-12.337 25.212-18.149 18.375-5.553 43.539-13.161 43.307-43.242-0.003-23.13-20.013-38.733-49.803-38.733zM780.806 621.138h-25.171l-0.116 76.88-32.716-64.257h-13.75l-32.82 64.257v-76.88h-25.194v136.492h23.41l41.606-81.665 41.326 81.665h23.428v-136.492zM836.712 621.138c-17.259 0-35.259 7.409-46.989 19.341l-7.617 7.745 17.943 17.937 7.739-8.182c6.6-6.969 18.223-11.653 28.924-11.653 11.355 0 24.611 3.569 24.611 13.634 0.080 9.821-5.705 13.048-25.652 19.088-18.089 5.481-42.858 12.982-42.858 42.213 0 21.75 19.088 36.365 47.507 36.365 12.816 0 26.774-3.875 36.434-10.115l9.068-5.853-13.244-21.203-9.342 6.020c-5.529 3.563-14.737 5.957-22.916 5.957-11.106 0-22.318-3.453-22.318-11.171 0-9.074 5.99-12.337 25.209-18.149 18.375-5.553 43.539-13.161 43.307-43.242 0-23.13-20.010-38.733-49.806-38.733z" />
<glyph unicode="&#x7c;" glyph-name="alarm-button" d="M416.61 376.343c-13.27-2.335-26.963-3.503-40.871-3.503-132.485 0-240.023 107.431-240.023 240.023s107.432 240.023 240.023 240.023 239.917-107.538 239.917-240.023c0-50.637-15.711-97.559-42.356-136.201 10.722-15.605 20.17-29.301 27.494-39.809 23.249 5.414 72.931 16.878 121.763 28.45v473.465c0 11.677-9.236 21.232-20.913 21.232h-651.81c-11.784 0-21.55-9.554-21.55-21.232v-651.81c0-11.677 9.767-21.232 21.55-21.232h428.56l-61.784 110.617zM353.871 644.605l4.246 2.76c13.376 8.811 28.981 13.482 45.010 13.482v0c26.964 0 52.23-13.27 67.518-35.457 6.688-9.767 14.224-20.701 22.293-32.378 1.062 6.476 1.592 13.057 1.592 19.745 0 65.606-53.186 118.791-118.791 118.791s-118.791-53.185-118.791-118.791c0-56.476 39.491-103.823 92.357-115.818l-21.87 39.172c-10.085 18.153-12.951 39.278-8.068 59.448 4.883 20.276 17.091 37.686 34.502 49.045zM971.18 287.171c-0.638 1.274-1.38 2.547-2.123 3.822l-78.769 140.872c-7.325 13.057-20.913 20.807-35.351 20.807-3.079 0-6.263-0.318-9.342-1.062-29.618-6.9-77.389-18.047-123.037-28.663-64.756-15.181-126.328-29.512-126.328-29.512-1.486-0.318-2.972-0.531-4.565-0.531-6.477 0-12.739 3.185-16.562 8.6-6.476 9.235-128.239 185.458-138.747 200.531-7.856 11.359-20.49 17.516-33.44 17.516-7.643 0-15.393-2.123-22.187-6.688l-4.246-2.76c-17.728-11.677-23.461-35.138-13.164-53.61l207.751-372.084c2.548-4.566 1.38-10.297-2.866-13.482l-0.106-0.107c-0.425-0.318-0.955-0.637-1.486-0.954-14.331-7.962-28.874-10.723-42.144-10.723-29.301 0-52.337 13.377-52.442 13.377-6.582 3.291-13.588 4.883-20.488 4.883-13.057 0-25.903-5.626-34.82-16.030l-5.202-6.051c-16.242-19.108-14.119-47.665 4.777-64.226 42.782-37.261 116.986-92.145 191.403-131.211 30.362-15.924 63.589-23.886 96.816-23.886 34.926 0 69.746 8.811 101.169 26.327l83.122 46.497c98.725 54.99 135.987 178.982 82.378 278.346z" />
</font>
</defs>
</svg>
